<?xml version="1.0" encoding="UTF-8" standalone="no"?>
<!-- Created with Inkscape (http://www.inkscape.org/) -->

<svg
   xmlns:dc="http://purl.org/dc/elements/1.1/"
   xmlns:cc="http://creativecommons.org/ns#"
   xmlns:rdf="http://www.w3.org/1999/02/22-rdf-syntax-ns#"
   xmlns:svg="http://www.w3.org/2000/svg"
   xmlns="http://www.w3.org/2000/svg"
   xmlns:sodipodi="http://sodipodi.sourceforge.net/DTD/sodipodi-0.dtd"
   xmlns:inkscape="http://www.inkscape.org/namespaces/inkscape"
   width="1920px"
   height="1080px"
   viewBox="0 0 1920 1080"
   version="1.1"
   id="SVGRoot"
   inkscape:version="0.92.5 (2060ec1f9f, 2020-04-08)"
   sodipodi:docname="King-Richard-Budget-Design-File.svg">
  <defs
     id="defs6191" />
  <sodipodi:namedview
     id="base"
     pagecolor="#ffffff"
     bordercolor="#666666"
     borderopacity="1.0"
     inkscape:pageopacity="0.0"
     inkscape:pageshadow="2"
     inkscape:zoom="1.9872647"
     inkscape:cx="1632.9515"
     inkscape:cy="1080.1497"
     inkscape:document-units="px"
     inkscape:current-layer="layer8"
     showgrid="false"
     inkscape:window-width="1920"
     inkscape:window-height="975"
     inkscape:window-x="1920"
     inkscape:window-y="40"
     inkscape:window-maximized="1">
    <inkscape:grid
       type="xygrid"
       id="grid6749"
       color="#3f3fff"
       opacity="0"
       spacingx="16"
       spacingy="12" />
  </sodipodi:namedview>
  <metadata
     id="metadata6194">
    <rdf:RDF>
      <cc:Work
         rdf:about="">
        <dc:format>image/svg+xml</dc:format>
        <dc:type
           rdf:resource="http://purl.org/dc/dcmitype/StillImage" />
        <dc:title />
      </cc:Work>
    </rdf:RDF>
  </metadata>
  <g
     inkscape:label="Landing Page"
     inkscape:groupmode="layer"
     id="layer1"
     style="display:inline">
    <g
       inkscape:groupmode="layer"
       id="layer2"
       inkscape:label="Background"
       style="display:inline">
      <rect
         style="opacity:1;fill:#111111;fill-opacity:1;stroke:none"
         id="rect1380"
         width="1920"
         height="1080"
         x="0"
         y="-2.2737368e-13" />
      <g
         transform="translate(-488.53475,6.757275)"
         id="layer1-5"
         inkscape:label="Layer 1">
        <path
           inkscape:export-ydpi="96"
           inkscape:export-xdpi="96"
           inkscape:connector-curvature="0"
           d="m 811.22143,504.5709 -156.3242,-176.9882 140.5511,12.5202 c 6.0579,80.3562 82.0529,75.2063 105.4514,45.4787 44.048,-56.2086 -5.7477,-106.0856 -48.1545,-104.0075 l 59.2596,-106.1619 106.74747,62.6834 c -57.57547,26.8143 -40.51177,102.3362 12.4264,114.1146 48.4008,11.2094 97.0667,-32.4107 65.2419,-92.2187 l 113.8331,-81.2162 -46.8381,231.4255 z m 5.612,20.9437 352.19397,-94.3701 13.2119,49.3072 -352.19397,94.3701 z m 335.81687,-37.1357 -117.871,31.5839 c 2.2377,0.6141 4.2607,1.2356 5.9707,1.8575 14.9653,4.5546 24.0759,11.0614 29.2812,18.2187 5.856,7.1574 10.4102,16.9175 10.4102,36.4375 0,21.472 -4.5558,32.5335 -11.0625,40.9922 -5.856,7.808 -14.9646,14.3142 -29.2793,19.5195 -18.8693,6.5067 -74.8262,14.3161 -74.8262,10.4121 -5.9619,0 -7.7158,-67.5185 -5.2734,-107.4003 l -100.3907,26.9003 c -0.2655,27.2778 -0.39449,56.4561 -0.39449,85.7051 0,117.12 1.9512,234.2403 6.50589,234.2403 0,2.6027 24.7257,3.9023 49.4511,3.9023 24.7253,0.6507 50.1016,-1.2996 50.1016,-3.9023 8.45871,0 0,-149.0042 0,-152.9083 0,-3.2534 4.5539,-3.2519 6.5059,-3.2519 7.808,0 104.1072,149.0011 113.8672,155.5078 9.76,6.5066 115.168,6.5066 115.168,0 0,-6.5067 -111.2637,-167.221 -111.2638,-171.125 0,-9.1093 45.5457,-24.0747 62.463,-46.1973 18.2187,-24.0747 27.9785,-56.6078 27.9785,-92.3945 0,-34.2978 -9.9228,-64.871 -27.3419,-88.0976 z"
           style="fill:#822aba;fill-opacity:1;stroke:none;stroke-width:2.13909268px;stroke-linecap:butt;stroke-linejoin:miter;stroke-opacity:1"
           id="path929" />
      </g>
      <text
         xml:space="preserve"
         style="font-style:normal;font-variant:normal;font-weight:normal;font-stretch:normal;font-size:133.33332825px;line-height:1.25;font-family:'Purely Me';-inkscape-font-specification:'Purely Me';letter-spacing:0px;word-spacing:0px;fill:#822aba;fill-opacity:1;stroke:none"
         x="798"
         y="578.54608"
         id="text1393"><tspan
           sodipodi:role="line"
           id="tspan1391"
           x="798"
           y="578.54608">King Richard</tspan></text>
      <text
         id="text1397"
         y="642.74725"
         x="1156.8578"
         style="font-style:normal;font-variant:normal;font-weight:normal;font-stretch:normal;font-size:48px;line-height:1.25;font-family:'Purely Me';-inkscape-font-specification:'Purely Me';letter-spacing:0px;word-spacing:0px;fill:#822aba;fill-opacity:1;stroke:none"
         xml:space="preserve"><tspan
           y="642.74725"
           x="1156.8578"
           id="tspan1395"
           sodipodi:role="line">Budget Like Royalty</tspan></text>
    </g>
    <g
       inkscape:groupmode="layer"
       id="layer3"
       inkscape:label="Landing Navigation"
       style="display:inline;opacity:1">
      <rect
         style="opacity:1;fill:#822aba;fill-opacity:1;stroke:none"
         id="rect1399"
         width="1920"
         height="60"
         x="0"
         y="0" />
      <g
         style="display:inline;fill:#ffffff"
         inkscape:label="Layer 1"
         id="g1421"
         transform="matrix(0.06198668,0,0,0.06198668,-27.834093,-3.0539462)">
        <path
           id="path1419"
           style="fill:#ffffff;fill-opacity:1;stroke:none;stroke-width:2.13909268px;stroke-linecap:butt;stroke-linejoin:miter;stroke-opacity:1"
           d="m 811.22143,504.5709 -156.3242,-176.9882 140.5511,12.5202 c 6.0579,80.3562 82.0529,75.2063 105.4514,45.4787 44.048,-56.2086 -5.7477,-106.0856 -48.1545,-104.0075 l 59.2596,-106.1619 106.74747,62.6834 c -57.57547,26.8143 -40.51177,102.3362 12.4264,114.1146 48.4008,11.2094 97.0667,-32.4107 65.2419,-92.2187 l 113.8331,-81.2162 -46.8381,231.4255 z m 5.612,20.9437 352.19397,-94.3701 13.2119,49.3072 -352.19397,94.3701 z m 335.81687,-37.1357 -117.871,31.5839 c 2.2377,0.6141 4.2607,1.2356 5.9707,1.8575 14.9653,4.5546 24.0759,11.0614 29.2812,18.2187 5.856,7.1574 10.4102,16.9175 10.4102,36.4375 0,21.472 -4.5558,32.5335 -11.0625,40.9922 -5.856,7.808 -14.9646,14.3142 -29.2793,19.5195 -18.8693,6.5067 -74.8262,14.3161 -74.8262,10.4121 -5.9619,0 -7.7158,-67.5185 -5.2734,-107.4003 l -100.3907,26.9003 c -0.2655,27.2778 -0.39449,56.4561 -0.39449,85.7051 0,117.12 1.9512,234.2403 6.50589,234.2403 0,2.6027 24.7257,3.9023 49.4511,3.9023 24.7253,0.6507 50.1016,-1.2996 50.1016,-3.9023 8.45871,0 0,-149.0042 0,-152.9083 0,-3.2534 4.5539,-3.2519 6.5059,-3.2519 7.808,0 104.1072,149.0011 113.8672,155.5078 9.76,6.5066 115.168,6.5066 115.168,0 0,-6.5067 -111.2637,-167.221 -111.2638,-171.125 0,-9.1093 45.5457,-24.0747 62.463,-46.1973 18.2187,-24.0747 27.9785,-56.6078 27.9785,-92.3945 0,-34.2978 -9.9228,-64.871 -27.3419,-88.0976 z"
           inkscape:connector-curvature="0"
           inkscape:export-xdpi="96"
           inkscape:export-ydpi="96" />
      </g>
      <path
         style="font-style:normal;font-variant:normal;font-weight:normal;font-stretch:normal;font-size:24px;line-height:1.25;font-family:'Purely Me';-inkscape-font-specification:'Purely Me';letter-spacing:0px;word-spacing:0px;display:inline;fill:#ffffff;fill-opacity:1;stroke:none"
         d="m 157.53711,18.242188 c -0.888,0 -1.75195,0.04797 -1.75195,0.167968 -0.192,0 -0.26368,4.583969 -0.26368,9.167969 0,4.584 0.0717,9.191406 0.26368,9.191406 0,0.12 0.86395,0.167969 1.75195,0.167969 0.888,0 1.77539,-0.04797 1.77539,-0.167969 0.36,0 0.14387,-6.022859 0.67188,-7.630859 0.264,-0.792 0.6015,-1.272547 0.9375,-1.560547 0.36,-0.264 0.81568,-0.527344 1.67968,-0.527344 0.888,0 1.24772,0.240469 1.51172,0.480469 0.264,0.24 0.52814,0.670328 0.74414,1.486328 0.384,1.608 -0.0241,7.751953 0.33594,7.751953 0,0.24 3.52734,0.24 3.52734,0 0.12,0 0.19336,-0.695125 0.19336,-1.703125 0,-2.016 -0.24043,-5.280109 -0.64844,-6.912109 -0.28799,-1.224 -0.81621,-2.399672 -1.82421,-3.263672 -0.984,-0.888 -2.35185,-1.369141 -3.83985,-1.369141 -1.224,0 -3.28906,1.2495 -3.28906,0.9375 -0.36,0 0.36,-6.048828 0,-6.048828 0,-0.12 -0.88739,-0.167968 -1.77539,-0.167968 z m 52.84766,0 c -0.816,0 -1.65625,0.04797 -1.65625,0.167968 -0.408,0 0.288,5.976563 0,5.976563 -0.408,0 -1.29593,-0.385297 -1.91993,-0.529297 -0.384,-0.096 -0.76695,-0.142578 -1.12695,-0.142578 -1.128,-0.048 -2.16139,0.24014 -3.02539,0.74414 -2.232,1.32 -3.19141,3.502969 -3.19141,5.542969 0,1.752 0.31208,3.455985 1.08008,4.583985 0.792,1.104 1.9691,2.351562 3.1211,2.351562 1.656,0 5.0625,-0.599078 5.0625,-0.455078 0.072,0 0,0.263109 0,0.287109 0,0.24 3.36132,0.24 3.36132,0 0.12,0 0.24024,-6.382672 0.24024,-11.638672 0,-3.648 -0.0722,-6.720703 -0.24024,-6.720703 0,-0.12 -0.84107,-0.191969 -1.70507,-0.167968 z M 75.841797,18.722656 c -1.296,0 -1.65625,0.934766 -1.65625,2.134766 0,0.72 0.24025,1.896484 1.65625,1.896484 1.416,0 1.65625,-0.936484 1.65625,-1.896484 0,-1.2 -0.36025,-2.134766 -1.65625,-2.134766 z m 63.119143,0 c -1.296,0 -1.65625,0.934766 -1.65625,2.134766 0,0.72 0.24025,1.896484 1.65625,1.896484 1.416,0 1.65625,-0.936484 1.65625,-1.896484 0,-1.2 -0.36025,-2.134766 -1.65625,-2.134766 z m -77.748049,0.947266 c -0.882,0 -1.763672,0.05969 -1.763672,0.179687 -0.192,0 -0.263672,4.225219 -0.263672,8.449219 0,4.224 0.07167,8.470703 0.263672,8.470703 0,0.24 3.527343,0.24 3.527343,0 0.336,0 -0.36,-5.638672 0,-5.638672 0.336,-0.216 4.105704,5.638672 4.345704,5.638672 0,0.12 1.102468,0.167969 2.230468,0.167969 1.104,0 2.208985,-0.04797 2.208985,-0.167969 0,-0.24 -6.648438,-8.230672 -6.648438,-8.638672 0,-0.504 6.671875,-8.01725 6.671875,-8.28125 0,-0.12 -1.127859,-0.167968 -2.255859,-0.167968 -1.128,0 -2.279297,0.04797 -2.279297,0.167968 -0.408,0 -4.273438,5.880688 -4.273438,5.304688 -0.359999,0 0.336001,-5.304688 0,-5.304688 0,-0.12 -0.881671,-0.179687 -1.763671,-0.179687 z m 61.499999,0.01172 c -0.096,0 -0.16797,8.28e-4 -0.16797,0.04883 -0.168,0 -0.24023,4.199828 -0.24023,8.423828 0,4.32 0.0722,8.640625 0.24023,8.640625 0,0.096 0.91222,0.142578 1.82422,0.142578 0.912,0.024 1.84766,-0.04658 1.84766,-0.142578 0.312,0 0,-5.496625 0,-5.640625 0,-0.12 0.16823,-0.119141 0.24023,-0.119141 0.288,0 3.84117,5.494375 4.20117,5.734375 0.36,0.24 4.24805,0.24 4.24805,0 0,-0.24 -4.10547,-6.166547 -4.10547,-6.310547 0,-0.336 1.68069,-0.889078 2.30469,-1.705078 0.672,-0.888 1.03125,-2.088203 1.03125,-3.408203 0,-1.296 -0.38269,-2.446547 -1.05469,-3.310547 -0.696,-0.864 -1.63292,-1.392515 -2.54492,-1.728515 -1.848,-0.624 -4.8002,-0.576172 -6.4082,-0.576172 -0.336,0 -0.93549,-0.04883 -1.27149,-0.04883 z m 3.5918,3.234375 c 0.057,-0.006 0.14004,-0.0061 0.24804,0.0059 0.624,0.024 1.92122,0.216203 2.44922,0.408203 0.552,0.168 0.88808,0.407875 1.08008,0.671875 0.216,0.264 0.38281,0.62375 0.38281,1.34375 0,0.792 -0.1682,1.199719 -0.4082,1.511719 -0.216,0.288 -0.55208,0.528703 -1.08008,0.720703 -0.696,0.24 -2.75976,0.528766 -2.75976,0.384766 -0.312,0 -0.312,-5.015625 0,-5.015625 0,-0.012 0.0309,-0.02525 0.0879,-0.03125 z M 82.25,23.498047 c -0.816,0 -1.632812,0.07141 -1.632812,0.191406 0,2.904 -0.167969,7.75225 -0.167969,10.65625 0,1.464 0.04797,2.423828 0.167969,2.423828 0,0.24 3.263671,0.24 3.263671,0 0.12,0 0.576313,-6.335922 1.320313,-7.919922 0.744,-1.608 1.440515,-1.919921 1.728516,-1.919921 0.263999,0 0.984515,0.335921 1.728515,1.919921 0.744,1.608 1.318359,4.271922 1.318359,7.919922 0,0.12 0.81625,0.191969 1.65625,0.167969 0.792001,0 1.609376,-0.04797 1.609376,-0.167969 0,-3.984 -0.601376,-7.055109 -1.609376,-9.287109 -1.031999,-2.208 -2.639124,-3.816406 -4.703124,-3.816406 -1.176001,0 -2.688829,1.392578 -3.048829,1.392578 -0.12,0 -0.024,-0.913141 0,-1.369141 0.024,-0.12 -0.814859,-0.191406 -1.630859,-0.191406 z m 18.88672,0 c -0.096,0 -0.19167,-5.63e-4 -0.26367,0.02344 -1.320003,0.096 -2.423941,0.480078 -3.335941,1.080078 -1.776,1.2 -2.519531,3.168219 -2.519531,4.824219 0,1.8 0.647125,3.336875 1.703125,4.296875 1.056,0.96 2.353563,1.343453 3.601567,1.439453 1.224,0.096 2.42251,-0.09508 3.47851,-0.455078 0.312,-0.12 0.6975,-0.384765 0.9375,-0.384765 0.24,-0.144 0.14397,1.055718 0.16797,1.511718 0.024,0.912 -0.26559,1.344547 -0.43359,1.560547 h -0.0234 c 0,0.024 5.6e-4,0.02344 -0.0234,0.02344 -0.216,0.288 -0.95986,1.032078 -2.25586,1.080078 -1.296,0.072 -3.359613,-1.392578 -3.599613,-1.392578 -0.263999,-0.264 -2.71375,1.537078 -2.59375,1.705078 0,0.312 3.240032,2.711734 5.832033,2.927734 0.168,0 0.31247,0.02344 0.48047,0.02344 1.848,0 3.48054,-0.911031 4.56055,-2.207031 0.888,-1.008001 1.10352,-2.305297 1.10352,-3.529297 v -0.28711 c -0.024,-1.344 -0.28818,-2.711515 -0.57618,-4.103515 -0.312,-1.44 -0.59901,-2.90461 -0.79101,-4.22461 0,-1.176 0.264,-3.503906 0,-3.503906 0,-0.144 -3.00001,-0.383375 -3.00001,-0.359375 -0.144,0 -0.0254,0.07114 -0.0254,0.119141 0,0.072 -1.53582,-0.167969 -2.42382,-0.167969 z m 47.35351,0 c -1.2,0 -2.68814,0.336281 -3.74414,1.488281 -1.08,1.152 -1.58398,2.832156 -1.58398,5.160156 0,2.016 0.21495,3.624485 1.12695,4.896485 0.912,1.32 2.52117,1.894531 4.20117,1.894531 1.536,0 2.78388,-0.502391 3.67188,-1.150391 0.864,-0.624 1.39169,-1.345015 1.67969,-2.041015 0.048,-0.048 0.0469,-0.09597 0.0469,-0.167969 0,-0.096 -0.0243,-0.168234 -0.0723,-0.240234 -0.072,-0.12 -0.16711,-0.19111 -0.28711,-0.28711 -0.216,-0.168 -0.52728,-0.31164 -0.86328,-0.43164 -0.336,-0.144 -0.67294,-0.241063 -0.96094,-0.289063 -0.168,-0.024 -0.28764,-0.024 -0.43164,0 -0.144,0.024 -0.28738,0.0728 -0.35938,0.216797 0,0 -0.001,0.02344 -0.0254,0.02344 0,0 -0.0714,0.14311 -0.1914,0.28711 -0.12,0.144 -0.26447,0.336469 -0.48047,0.480469 -0.384,0.288 -0.91057,0.529296 -1.72657,0.529297 -0.528,0 -0.86407,-0.04853 -1.08007,-0.144532 -0.216,-0.072 -0.31247,-0.192203 -0.48047,-0.408203 -0.264,-0.384 -0.57617,-1.415969 -0.57617,-3.167969 0,-1.872 0.43157,-2.735703 0.76757,-3.095703 0.336,-0.36 0.69714,-0.457031 1.36914,-0.457031 0.408,0 0.8864,0.143937 1.15039,0.335938 0.288,0.239999 0.5293,0.504015 0.5293,1.416015 0,0.168 0.12024,0.287938 0.24024,0.335938 0.096,0.072 0.21537,0.09709 0.35937,0.121093 0.288,0.048 0.64838,0.07227 0.98438,0.07227 0.36,0 0.72037,-0.04966 0.98437,-0.09766 0.144,-0.024 0.26338,-0.0477 0.35938,-0.0957 0.048,-0.024 0.11996,-0.0477 0.16796,-0.0957 0.048,-0.048 0.0957,-0.144235 0.0957,-0.240235 0,-1.632 -0.67113,-2.999016 -1.70313,-3.791015 -1.008,-0.792001 -2.15997,-1.056641 -3.16797,-1.056641 z m 28.84766,0 c -1.848,0 -3.45684,0.864719 -4.46484,2.136719 -1.008,1.272 -1.48828,2.903984 -1.48828,4.583984 0,1.68 0.48028,3.287984 1.48828,4.583984 1.008,1.272 2.61684,2.134766 4.46484,2.134766 h 0.0723 c 0.024,0 0.0463,-0.02344 0.0703,-0.02344 1.56,-0.143999 3.45644,-1.824218 3.64844,-1.824218 0.264,0 3.09676,1.871656 3.38476,1.847656 h 0.0234 c 0.12,0 0.16797,-0.838297 0.16797,-1.654297 0,-0.816 -0.048,-1.609375 -0.16797,-1.609375 0,-0.336 -0.55208,-0.166719 -1.08008,-0.886719 -0.528,-0.72 -1.05489,-1.824562 -1.46289,-2.976562 -0.144,-0.408 -0.26477,-0.840047 -0.38476,-1.248047 -0.24001,-1.248 -0.50447,-2.352531 -0.48047,-3.144531 0,-0.528 0.288,-1.63086 0,-1.63086 -0.432,-0.024 -1.10425,-0.024 -1.65625,0 -0.144,0.024 -0.21508,0.0957 -0.45508,0.0957 -0.24,0 -1.10369,-0.384765 -1.67969,-0.384765 z m 11.85547,0 c -0.816,0 -1.63281,0.07141 -1.63281,0.191406 -0.12,0 -0.16797,3.241297 -0.16797,6.529297 0,3.264 0.048,6.550781 0.16797,6.550781 0,0.12 0.84025,0.191969 1.65625,0.167969 0.816,0 1.63281,-0.04797 1.63281,-0.167969 0,-4.128 0.33608,-6.744187 1.08008,-7.992187 0.384,-0.624 0.79198,-0.982922 1.58398,-1.294922 0.792,-0.312 2.01644,-0.527344 3.64844,-0.527344 0.24,0 0.33594,-0.84025 0.33594,-1.65625 0,-0.816 -0.11994,-1.609375 -0.33594,-1.609375 -1.872,0 -3.48022,0.216141 -4.82422,0.744141 -0.552,0.216 -1.27228,0.839844 -1.48828,0.839844 -0.24,0 0.216,-1.583985 0,-1.583985 0,-0.12 -0.84025,-0.191406 -1.65625,-0.191406 z m -113.388672,0.05469 c -0.810001,0 -1.619141,0.05411 -1.619141,0.16211 0.12,0.504 -0.07227,8.086703 -0.07227,11.470703 0,0.984 0.02427,1.609375 0.07227,1.609375 0,0.096 0.815422,0.142578 1.607422,0.142578 0.816,0 1.632812,-0.04658 1.632812,-0.142578 0.24,0 -0.168,-12.432078 0,-13.080078 0,-0.108 -0.811093,-0.16211 -1.621093,-0.16211 z m 63.121092,0 c -0.81,0 -1.62109,0.05411 -1.62109,0.16211 0.12,0.504 -0.0723,8.086703 -0.0723,11.470703 0,0.984 0.0243,1.609375 0.0723,1.609375 0,0.096 0.81737,0.142578 1.60937,0.142578 0.816,0 1.63086,-0.04658 1.63086,-0.142578 0.24,0 -0.168,-12.432078 0,-13.080078 0,-0.108 -0.80914,-0.16211 -1.61914,-0.16211 z m -36.40234,3.128907 c 0.498,0.027 0.91797,0.09261 0.91797,0.224609 0.096,0 0.0477,0.768344 0.0957,1.152344 0,1.08 0.0238,2.880531 -0.24024,3.144531 -0.216,0.216 -0.26417,0.31025 -0.57617,0.40625 -0.648,0.24 -1.39159,0.361062 -2.18359,0.289063 -0.768004,-0.048 -1.344519,-0.23961 -1.728519,-0.59961 -0.408,-0.36 -0.646485,-0.816484 -0.646485,-1.896484 0,-0.672 0.19125,-1.535328 1.03125,-2.111328 0.432,-0.288 1.055364,-0.529563 1.943364,-0.601563 0.312,-0.024 0.88871,-0.03481 1.38671,-0.0078 z m 74.81445,0.08008 c 0.096,0 0.40678,0.09597 0.55078,0.167969 0.12,0.096 0.12053,0.288203 0.14453,0.408203 0.072,0.408 0.0968,0.816875 0.2168,1.296875 0.216,1.128 0.45591,2.16 0.50391,3 0.048,0.792 -0.0728,1.296281 -0.2168,1.488281 -0.144,0.216 -0.38292,0.431344 -1.29492,0.527344 -0.84,-0.024 -1.36878,-0.312672 -1.80078,-0.888672 -0.48,-0.576 -0.79297,-1.486969 -0.79297,-2.542969 0,-1.056 0.31297,-1.968922 0.79297,-2.544922 0.456,-0.6 0.98448,-0.912109 1.89648,-0.912109 z m 27.95899,0.289062 c 0.23999,0 0.47957,0.0237 0.76757,0.0957 0.648,0.144 2.66407,0.07092 2.66407,1.294922 0,0.672 0.408,4.728219 0,4.824219 -1.296,0.384 -3.40832,0.600203 -4.32032,0.408203 -0.6,-0.144 -0.86351,-0.287047 -1.10351,-0.623047 -0.24,-0.36 -0.48047,-1.704828 -0.48047,-3.048828 0,-0.72 0.67255,-2.112625 1.56055,-2.640625 0.264,-0.168 0.5521,-0.286547 0.91211,-0.310547 z"
         id="text1427"
         inkscape:connector-curvature="0" />
      <g
         inkscape:groupmode="layer"
         id="layer5"
         inkscape:label="Signup Button">
        <rect
           style="opacity:1;fill:none;fill-opacity:1;stroke:#ffffff;stroke-width:0.75815129"
           id="rect1434"
           width="144.14185"
           height="38.281849"
           x="1753.9291"
           y="10.859076"
           ry="19.140924" />
        <text
           xml:space="preserve"
           style="font-style:normal;font-variant:normal;font-weight:normal;font-stretch:normal;font-size:18.66666603px;line-height:1.25;font-family:'Purely Me';-inkscape-font-specification:'Purely Me';letter-spacing:0px;word-spacing:0px;opacity:1;fill:#ffffff;fill-opacity:1;stroke:none"
           x="1807.2374"
           y="35.208"
           id="text1444"><tspan
             sodipodi:role="line"
             id="tspan1442"
             x="1807.2374"
             y="35.208">Signup</tspan></text>
      </g>
      <g
         inkscape:groupmode="layer"
         id="layer4"
         inkscape:label="Login Button"
         style="display:inline">
        <g
           inkscape:groupmode="layer"
           id="layer7"
           inkscape:label="Login Button -- Default"
           style="display:inline">
          <rect
             ry="19.140924"
             y="10.859076"
             x="1601.0291"
             height="38.281849"
             width="144.14185"
             id="rect1436"
             style="opacity:1;fill:none;fill-opacity:1;stroke:#ffffff;stroke-width:0.75815129" />
          <text
             xml:space="preserve"
             style="font-style:normal;font-variant:normal;font-weight:normal;font-stretch:normal;font-size:18.66666603px;line-height:1.25;font-family:'Purely Me';-inkscape-font-specification:'Purely Me';letter-spacing:0px;word-spacing:0px;opacity:1;fill:#ffffff;fill-opacity:1;stroke:none"
             x="1654.8894"
             y="35.208"
             id="text1440"><tspan
               sodipodi:role="line"
               id="tspan1438"
               x="1654.8894"
               y="35.208">Login</tspan></text>
          <path
             style="display:inline;opacity:1;fill:#ffffff;stroke-width:0.07870968"
             inkscape:connector-curvature="0"
             d="m 1620.1699,10.48 c -10.7831,0 -19.5199,8.736773 -19.5199,19.520001 0,10.783226 8.7368,19.519999 19.5199,19.519999 10.7834,0 19.5201,-8.736773 19.5201,-19.519999 0,-10.783228 -8.7367,-19.520001 -19.5201,-19.520001 z m 0,7.55613 c 3.8254,0 6.9265,3.101164 6.9265,6.926451 0,3.825293 -3.1011,6.92645 -6.9265,6.92645 -3.8251,0 -6.9263,-3.101157 -6.9263,-6.92645 0,-3.825287 3.1012,-6.926451 6.9263,-6.926451 z m 0,27.07613 c -4.6202,0 -8.7603,-2.09368 -11.5308,-5.368001 1.4797,-2.786319 4.3762,-4.706839 7.7528,-4.706839 0.1889,0 0.3779,0.0315 0.5588,0.08658 1.0233,0.330581 2.0938,0.543097 3.2192,0.543097 1.1256,0 2.204,-0.212516 3.2193,-0.543097 0.1811,-0.05508 0.37,-0.08658 0.5589,-0.08658 3.3766,0 6.2731,1.92052 7.7529,4.706839 -2.7705,3.274321 -6.9107,5.368001 -11.5311,5.368001 z"
             id="path1113" />
        </g>
        <g
           inkscape:groupmode="layer"
           id="layer6"
           inkscape:label="Login Button -- Hovered"
           style="display:inline">
          <rect
             style="opacity:1;fill:#ffffff;fill-opacity:1;stroke:#ffffff;stroke-width:0.75815129"
             id="rect1473"
             width="144.14185"
             height="38.281849"
             x="1601.0291"
             y="10.859076"
             ry="19.140924" />
          <text
             id="text1477"
             y="35.208"
             x="1648.8894"
             style="font-style:normal;font-variant:normal;font-weight:normal;font-stretch:normal;font-size:18.66666603px;line-height:1.25;font-family:'Purely Me';-inkscape-font-specification:'Purely Me';letter-spacing:0px;word-spacing:0px;opacity:1;fill:#822aba;fill-opacity:1;stroke:none"
             xml:space="preserve"><tspan
               y="35.208"
               x="1648.8894"
               id="tspan1475"
               sodipodi:role="line">Login</tspan></text>
          <path
             id="path1118"
             d="m 1620.1699,10.48 c -10.7831,0 -19.5199,8.736773 -19.5199,19.520001 0,10.783226 8.7368,19.519999 19.5199,19.519999 10.7834,0 19.5201,-8.736773 19.5201,-19.519999 0,-10.783228 -8.7367,-19.520001 -19.5201,-19.520001 z m 0,7.55613 c 3.8254,0 6.9265,3.101164 6.9265,6.926451 0,3.825293 -3.1011,6.92645 -6.9265,6.92645 -3.8251,0 -6.9263,-3.101157 -6.9263,-6.92645 0,-3.825287 3.1012,-6.926451 6.9263,-6.926451 z m 0,27.07613 c -4.6202,0 -8.7603,-2.09368 -11.5308,-5.368001 1.4797,-2.786319 4.3762,-4.706839 7.7528,-4.706839 0.1889,0 0.3779,0.0315 0.5588,0.08658 1.0233,0.330581 2.0938,0.543097 3.2192,0.543097 1.1256,0 2.204,-0.212516 3.2193,-0.543097 0.1811,-0.05508 0.37,-0.08658 0.5589,-0.08658 3.3766,0 6.2731,1.92052 7.7529,4.706839 -2.7705,3.274321 -6.9107,5.368001 -11.5311,5.368001 z"
             inkscape:connector-curvature="0"
             style="display:inline;opacity:1;fill:#ffffff;stroke-width:0.07870968" />
          <path
             id="path1122"
             d="m 1620.1699,10.48 c -10.7831,0 -19.5199,8.736773 -19.5199,19.520001 0,10.783226 8.7368,19.519999 19.5199,19.519999 10.7834,0 19.5201,-8.736773 19.5201,-19.519999 0,-10.783228 -8.7367,-19.520001 -19.5201,-19.520001 z m 0,7.55613 c 3.8254,0 6.9265,3.101164 6.9265,6.926451 0,3.825293 -3.1011,6.92645 -6.9265,6.92645 -3.8251,0 -6.9263,-3.101157 -6.9263,-6.92645 0,-3.825287 3.1012,-6.926451 6.9263,-6.926451 z m 0,27.07613 c -4.6202,0 -8.7603,-2.09368 -11.5308,-5.368001 1.4797,-2.786319 4.3762,-4.706839 7.7528,-4.706839 0.1889,0 0.3779,0.0315 0.5588,0.08658 1.0233,0.330581 2.0938,0.543097 3.2192,0.543097 1.1256,0 2.204,-0.212516 3.2193,-0.543097 0.1811,-0.05508 0.37,-0.08658 0.5589,-0.08658 3.3766,0 6.2731,1.92052 7.7529,4.706839 -2.7705,3.274321 -6.9107,5.368001 -11.5311,5.368001 z"
             inkscape:connector-curvature="0"
             style="display:inline;opacity:1;fill:#822aba;fill-opacity:1;stroke-width:0.07870968" />
        </g>
        <g
           inkscape:groupmode="layer"
           id="layer8"
           inkscape:label="Login Button -- Active"
           style="display:inline">
          <rect
             style="opacity:1;fill:#38d927;fill-opacity:1;stroke:#ffffff;stroke-width:0.75815129"
             id="rect1489"
             width="144.14185"
             height="38.281849"
             x="1601.0291"
             y="10.859076"
             ry="19.140924" />
          <text
             id="text1493"
             y="35.208"
             x="1648.8894"
             style="font-style:normal;font-variant:normal;font-weight:normal;font-stretch:normal;font-size:18.66666603px;line-height:1.25;font-family:'Purely Me';-inkscape-font-specification:'Purely Me';letter-spacing:0px;word-spacing:0px;opacity:1;fill:#ffffff;fill-opacity:1;stroke:none"
             xml:space="preserve"><tspan
               y="35.208"
               x="1648.8894"
               id="tspan1491"
               sodipodi:role="line">Login</tspan></text>
          <path
             style="display:inline;opacity:1;fill:#ffffff;stroke-width:0.07870968"
             inkscape:connector-curvature="0"
             d="m 1620.1699,10.48 c -10.7831,0 -19.5199,8.736773 -19.5199,19.520001 0,10.783226 8.7368,19.519999 19.5199,19.519999 10.7834,0 19.5201,-8.736773 19.5201,-19.519999 0,-10.783228 -8.7367,-19.520001 -19.5201,-19.520001 z m 0,7.55613 c 3.8254,0 6.9265,3.101164 6.9265,6.926451 0,3.825293 -3.1011,6.92645 -6.9265,6.92645 -3.8251,0 -6.9263,-3.101157 -6.9263,-6.92645 0,-3.825287 3.1012,-6.926451 6.9263,-6.926451 z m 0,27.07613 c -4.6202,0 -8.7603,-2.09368 -11.5308,-5.368001 1.4797,-2.786319 4.3762,-4.706839 7.7528,-4.706839 0.1889,0 0.3779,0.0315 0.5588,0.08658 1.0233,0.330581 2.0938,0.543097 3.2192,0.543097 1.1256,0 2.204,-0.212516 3.2193,-0.543097 0.1811,-0.05508 0.37,-0.08658 0.5589,-0.08658 3.3766,0 6.2731,1.92052 7.7529,4.706839 -2.7705,3.274321 -6.9107,5.368001 -11.5311,5.368001 z"
             id="path1127" />
        </g>
        <path
           id="path1116"
           d="m 1773.0699,10.48 c -10.7831,0 -19.5199,8.736773 -19.5199,19.520001 0,10.783226 8.7368,19.519999 19.5199,19.519999 10.7834,0 19.5201,-8.736773 19.5201,-19.519999 0,-10.783228 -8.7367,-19.520001 -19.5201,-19.520001 z m 0,7.55613 c 3.8254,0 6.9265,3.101164 6.9265,6.926451 0,3.825293 -3.1011,6.92645 -6.9265,6.92645 -3.8251,0 -6.9263,-3.101157 -6.9263,-6.92645 0,-3.825287 3.1012,-6.926451 6.9263,-6.926451 z m 0,27.07613 c -4.6202,0 -8.7603,-2.09368 -11.5308,-5.368001 1.4797,-2.786319 4.3762,-4.706839 7.7528,-4.706839 0.1889,0 0.3779,0.0315 0.5588,0.08658 1.0233,0.330581 2.0938,0.543097 3.2192,0.543097 1.1256,0 2.204,-0.212516 3.2193,-0.543097 0.1811,-0.05508 0.37,-0.08658 0.5589,-0.08658 3.3766,0 6.2731,1.92052 7.7529,4.706839 -2.7705,3.274321 -6.9107,5.368001 -11.5311,5.368001 z"
           inkscape:connector-curvature="0"
           style="display:inline;fill:#ffffff;stroke-width:0.07870968" />
        <path
           style="stroke-width:0.71089697"
           d="m 2478.3377,158.20309 c -48.6,0 -88,39.4 -88,88 0,5.684 0.5447,11.23904 1.5742,16.62304 7.143,33.50618 32.7203,60.17868 65.6153,68.89453 6.6727,1.61826 13.6402,2.48242 20.8105,2.48242 48.6,0 88,-39.39999 88,-87.99999 0,-48.6 -39.4,-88 -88,-88 z m -48,215.99999 c -42.9,0 -79.7,24.39883 -98.5,59.79883 35.2,41.6 87.8,68.20117 146.5,68.20117 58.7,0 111.3,-26.60117 146.5,-68.20117 -18.8,-35.4 -55.6,-59.79883 -98.5,-59.79883 -2.4,0 -4.7996,0.39961 -7.0996,1.09961 -12.9,4.2 -26.6004,6.90039 -40.9004,6.90039 -14.3,0 -27.9004,-2.70039 -40.9004,-6.90039 -2.3,-0.7 -4.6996,-1.09961 -7.0996,-1.09961 z m 114.1895,21.84766 h 10.3476 c 2.8451,0 5.1719,2.32677 5.1719,5.17188 v 20.6914 h 20.6914 c 2.8451,0 5.1738,2.32872 5.1738,5.17383 v 10.3457 c 0,2.84512 -2.3287,5.17383 -5.1738,5.17383 h -20.6914 v 20.69141 c 0,2.84512 -2.3268,5.17187 -5.1719,5.17187 h -10.3476 c -2.8451,0 -5.1719,-2.32675 -5.1719,-5.17187 v -20.69141 h -20.6914 c -2.8451,0 -5.1738,-2.32871 -5.1738,-5.17383 v -10.3457 c 0,-2.84511 2.3287,-5.17383 5.1738,-5.17383 h 20.6914 v -20.6914 c 0,-2.84511 2.3268,-5.17188 5.1719,-5.17188 z m 87.0039,109.21289 c -3.6983,2.90819 -7.4899,5.70043 -11.3535,8.39844 4.3527,-1.98988 8.214,-4.8639 11.3535,-8.39844 z"
           id="path1130"
           inkscape:connector-curvature="0" />
        <path
           style="fill:#000000"
           inkscape:connector-curvature="0"
           d="m 2478.3377,62.201914 c -137,0 -248,110.999996 -248,247.999996 0,137 111,248 248,248 137,0 248,-111 248,-248 0,-137 -111,-247.999996 -248,-247.999996 z m 0,95.999996 c 48.6,0 88,39.4 88,88 0,48.6 -39.4,88 -88,88 -48.6,0 -88,-39.4 -88,-88 0,-48.6 39.4,-88 88,-88 z m 0,344 c -58.7,0 -111.3,-26.6 -146.5,-68.2 18.8,-35.4 55.6,-59.8 98.5,-59.8 2.4,0 4.8,0.4 7.1,1.1 13,4.2 26.6,6.9 40.9,6.9 14.3,0 28,-2.7 40.9,-6.9 2.3,-0.7 4.7,-1.1 7.1,-1.1 42.9,0 79.7,24.4 98.5,59.8 -35.2,41.6 -87.8,68.2 -146.5,68.2 z"
           id="path1152" />
        <path
           id="path1160"
           d="m 3295.7271,-768.44477 h -45.4974 v -45.49741 c 0,-6.25589 -5.1184,-11.37435 -11.3743,-11.37435 h -22.7487 c -6.2559,0 -11.3744,5.11846 -11.3744,11.37435 v 45.49741 h -45.4974 c -6.2559,0 -11.3743,5.11846 -11.3743,11.37435 v 22.7487 c 0,6.25589 5.1184,11.37435 11.3743,11.37435 h 45.4974 v 45.49741 c 0,6.25589 5.1185,11.37434 11.3744,11.37434 h 22.7487 c 6.2559,0 11.3743,-5.11845 11.3743,-11.37434 v -45.49741 h 45.4974 c 6.2559,0 11.3744,-5.11846 11.3744,-11.37435 v -22.7487 c 0,-6.25589 -5.1185,-11.37435 -11.3744,-11.37435 z m -284.3587,34.12305 c 50.2604,0 90.9948,-40.73439 90.9948,-90.99481 0,-50.26041 -40.7344,-90.99481 -90.9948,-90.99481 -50.2605,0 -90.9948,40.7344 -90.9948,90.99481 0,50.26042 40.7343,90.99481 90.9948,90.99481 z m 63.6963,22.7487 h -11.8719 c -15.782,7.25115 -33.3411,11.37435 -51.8244,11.37435 -18.4834,0 -35.9714,-4.1232 -51.8244,-11.37435 h -11.872 c -52.7486,0 -95.5446,42.796 -95.5446,95.54455 v 29.57331 c 0,18.83877 15.2843,34.12306 34.1231,34.12306 h 250.2357 c 18.8388,0 34.1231,-15.28429 34.1231,-34.12306 v -29.57331 c 0,-52.74855 -42.796,-95.54455 -95.5446,-95.54455 z"
           inkscape:connector-curvature="0"
           style="stroke-width:0.71089697" />
        <circle
           style="opacity:1;fill:none;fill-opacity:1;stroke:#000000;stroke-width:49.60665131;stroke-miterlimit:4;stroke-dasharray:none"
           id="path1170"
           cx="3021.0017"
           cy="306.97281"
           r="223.19667" />
      </g>
      <path
         style="fill:none;stroke:#fffc2e;stroke-width:4;stroke-linecap:butt;stroke-linejoin:miter;stroke-miterlimit:4;stroke-dasharray:none;stroke-opacity:1"
         d="M 0,60 H 1920"
         id="path1501"
         inkscape:connector-curvature="0" />
    </g>
    <g
       inkscape:groupmode="layer"
       id="layer9"
       inkscape:label="Signup Form"
       style="display:inline">
      <g
         inkscape:groupmode="layer"
         id="layer11"
         inkscape:label="Signup Form -- Initial Setup"
         style="display:none">
        <rect
           style="display:inline;opacity:0.7;fill:#822aba;fill-opacity:1;stroke:none;stroke-opacity:1"
           id="rect1499"
           width="1920"
           height="1020"
           x="0"
           y="60" />
        <rect
           style="display:inline;opacity:0.7;fill:#38d927;fill-opacity:1;stroke:#38d927;stroke-width:3;stroke-miterlimit:4;stroke-dasharray:none;stroke-opacity:1"
           id="rect1505"
           width="240"
           height="60"
           x="1120"
           y="600" />
        <rect
           style="display:inline;opacity:0.5;fill:#333333;fill-opacity:1;stroke:#38d927;stroke-width:3;stroke-miterlimit:4;stroke-dasharray:none;stroke-opacity:1"
           id="rect1507"
           width="560"
           height="60"
           x="560"
           y="600" />
        <text
           xml:space="preserve"
           style="font-style:normal;font-variant:normal;font-weight:normal;font-stretch:normal;font-size:21.33333397px;line-height:1.25;font-family:'Purely Me';-inkscape-font-specification:'Purely Me';letter-spacing:0px;word-spacing:0px;display:inline;fill:#ffffff;fill-opacity:1;stroke:none"
           x="1192.2881"
           y="638.30402"
           id="text1511"><tspan
             sodipodi:role="line"
             id="tspan1509"
             x="1192.2881"
             y="638.30402">Continue</tspan></text>
        <text
           xml:space="preserve"
           style="font-style:normal;font-variant:normal;font-weight:normal;font-stretch:normal;font-size:21.33333397px;line-height:1.25;font-family:'Purely Me';-inkscape-font-specification:'Purely Me';letter-spacing:0px;word-spacing:0px;display:inline;fill:#cf352e;fill-opacity:1;stroke:none"
           x="576.13733"
           y="635.53601"
           id="text1515"><tspan
             sodipodi:role="line"
             id="tspan1513"
             x="576.13733"
             y="635.53601">Your name should only have letters.</tspan></text>
        <text
           xml:space="preserve"
           style="font-style:normal;font-variant:normal;font-weight:normal;font-stretch:normal;font-size:21.33333397px;line-height:1.25;font-family:'Purely Me';-inkscape-font-specification:'Purely Me';letter-spacing:0px;word-spacing:0px;display:inline;fill:#ffffff;fill-opacity:1;stroke:none"
           x="576.0733"
           y="466.25735"
           id="text1519"><tspan
             sodipodi:role="line"
             id="tspan1517"
             x="576.0733"
             y="466.25735">What is your first name?</tspan></text>
        <path
           style="display:inline;opacity:0.7;fill:#111111;fill-opacity:1;stroke:#38d927;stroke-width:3;stroke-miterlimit:4;stroke-dasharray:none;stroke-opacity:1"
           d="m 584,477 c -13.296,0 -24,10.704 -24,24 v 36 36 24 h 24 752 24 v -24 -36 -36 c 0,-13.296 -10.704,-24 -24,-24 z"
           id="rect1527"
           inkscape:connector-curvature="0" />
        <text
           xml:space="preserve"
           style="font-style:normal;font-variant:normal;font-weight:normal;font-stretch:normal;font-size:64px;line-height:1.25;font-family:'Purely Me';-inkscape-font-specification:'Purely Me';letter-spacing:0px;word-spacing:0px;display:inline;fill:#ffffff;fill-opacity:1;stroke:none"
           x="575.21997"
           y="564"
           id="text1523"><tspan
             sodipodi:role="line"
             id="tspan1521"
             x="575.21997"
             y="564">First Name</tspan></text>
      </g>
      <g
         inkscape:groupmode="layer"
         id="layer10"
         inkscape:label="Signup Form -- Last Input"
         style="display:none">
        <rect
           y="60"
           x="0"
           height="1020"
           width="1920"
           id="rect1576"
           style="display:inline;opacity:0.7;fill:#822aba;fill-opacity:1;stroke:none;stroke-opacity:1" />
        <rect
           style="opacity:0.7;fill:#291735;fill-opacity:1;stroke:#38d927;stroke-width:3;stroke-miterlimit:4;stroke-dasharray:none;stroke-opacity:1"
           id="rect1556"
           width="800"
           height="120"
           x="560"
           y="575.27509"
           ry="0" />
        <text
           id="text1540"
           y="396.84769"
           x="576.0733"
           style="font-style:normal;font-variant:normal;font-weight:normal;font-stretch:normal;font-size:21.33333397px;line-height:1.25;font-family:'Purely Me';-inkscape-font-specification:'Purely Me';letter-spacing:0px;word-spacing:0px;fill:#ffffff;fill-opacity:1;stroke:none"
           xml:space="preserve"><tspan
             y="396.84769"
             x="576.0733"
             id="tspan1538"
             sodipodi:role="line">What will your password be?</tspan></text>
        <rect
           y="698.27509"
           x="1120"
           height="60"
           width="240"
           id="rect1542"
           style="opacity:0.7;fill:#38d927;fill-opacity:1;stroke:#38d927;stroke-width:3;stroke-miterlimit:4;stroke-dasharray:none;stroke-opacity:1" />
        <rect
           y="698.27509"
           x="560"
           height="60"
           width="560"
           id="rect1544"
           style="opacity:0.5;fill:#333333;fill-opacity:1;stroke:#38d927;stroke-width:3;stroke-miterlimit:4;stroke-dasharray:none;stroke-opacity:1" />
        <text
           id="text1548"
           y="736.58228"
           x="1202.5601"
           style="font-style:normal;font-variant:normal;font-weight:normal;font-stretch:normal;font-size:21.33333397px;line-height:1.25;font-family:'Purely Me';-inkscape-font-specification:'Purely Me';letter-spacing:0px;word-spacing:0px;fill:#ffffff;fill-opacity:1;stroke:none"
           xml:space="preserve"><tspan
             y="736.58228"
             x="1202.5601"
             id="tspan1546"
             sodipodi:role="line">Submit</tspan></text>
        <text
           id="text1552"
           y="733.8111"
           x="576.13733"
           style="font-style:normal;font-variant:normal;font-weight:normal;font-stretch:normal;font-size:21.33333397px;line-height:1.25;font-family:'Purely Me';-inkscape-font-specification:'Purely Me';letter-spacing:0px;word-spacing:0px;fill:#ffffff;fill-opacity:1;stroke:none"
           xml:space="preserve"><tspan
             y="733.8111"
             x="576.13733"
             id="tspan1550"
             sodipodi:role="line">Error Response</tspan></text>
        <path
           inkscape:connector-curvature="0"
           id="path1554"
           d="m 584,409.27508 c -13.296,0 -24,10.704 -24,24 v 36 36 24 h 24 752 24 v -24 -36 -36 c 0,-13.296 -10.704,-24 -24,-24 z"
           style="opacity:0.7;fill:#111111;fill-opacity:1;stroke:#38d927;stroke-width:3;stroke-miterlimit:4;stroke-dasharray:none;stroke-opacity:1" />
        <text
           id="text1536"
           y="660.17108"
           x="575.21997"
           style="font-style:normal;font-variant:normal;font-weight:normal;font-stretch:normal;font-size:64px;line-height:1.25;font-family:'Purely Me';-inkscape-font-specification:'Purely Me';letter-spacing:0px;word-spacing:0px;fill:#ffffff;fill-opacity:1;stroke:none"
           xml:space="preserve"><tspan
             y="660.17108"
             x="575.21997"
             id="tspan1534"
             sodipodi:role="line">Repeat Password</tspan></text>
        <text
           id="text1560"
           y="561.53241"
           x="576.0733"
           style="font-style:normal;font-variant:normal;font-weight:normal;font-stretch:normal;font-size:21.33333397px;line-height:1.25;font-family:'Purely Me';-inkscape-font-specification:'Purely Me';letter-spacing:0px;word-spacing:0px;fill:#ffffff;fill-opacity:1;stroke:none"
           xml:space="preserve"><tspan
             y="561.53241"
             x="576.0733"
             id="tspan1558"
             sodipodi:role="line">Please repeat the password you chose.</tspan></text>
        <text
           xml:space="preserve"
           style="font-style:normal;font-variant:normal;font-weight:normal;font-stretch:normal;font-size:64px;line-height:1.25;font-family:'Purely Me';-inkscape-font-specification:'Purely Me';letter-spacing:0px;word-spacing:0px;fill:#ffffff;fill-opacity:1;stroke:none"
           x="575.21997"
           y="494.17108"
           id="text1595"><tspan
             sodipodi:role="line"
             id="tspan1593"
             x="575.21997"
             y="494.17108">Password</tspan></text>
      </g>
    </g>
    <g
       inkscape:groupmode="layer"
       id="layer12"
       inkscape:label="Login Form"
       style="display:inline">
      <rect
         style="display:inline;opacity:0.7;fill:#822aba;fill-opacity:1;stroke:none;stroke-opacity:1"
         id="rect1712"
         width="1920"
         height="1020"
         x="0"
         y="60" />
      <rect
         ry="0"
         y="575.27509"
         x="560"
         height="120"
         width="800"
         id="rect1714"
         style="display:inline;opacity:0.7;fill:#291735;fill-opacity:1;stroke:#38d927;stroke-width:3;stroke-miterlimit:4;stroke-dasharray:none;stroke-opacity:1" />
      <text
         xml:space="preserve"
         style="font-style:normal;font-variant:normal;font-weight:normal;font-stretch:normal;font-size:21.33333397px;line-height:1.25;font-family:'Purely Me';-inkscape-font-specification:'Purely Me';letter-spacing:0px;word-spacing:0px;display:inline;fill:#ffffff;fill-opacity:1;stroke:none"
         x="576.0733"
         y="396.84769"
         id="text1718"><tspan
           sodipodi:role="line"
           id="tspan1716"
           x="576.0733"
           y="396.84769">Please Enter Your Username</tspan></text>
      <rect
         style="display:inline;opacity:0.7;fill:#38d927;fill-opacity:1;stroke:#38d927;stroke-width:3;stroke-miterlimit:4;stroke-dasharray:none;stroke-opacity:1"
         id="rect1720"
         width="240"
         height="60"
         x="1120"
         y="698.27509" />
      <rect
         style="display:inline;opacity:0.5;fill:#333333;fill-opacity:1;stroke:#38d927;stroke-width:3;stroke-miterlimit:4;stroke-dasharray:none;stroke-opacity:1"
         id="rect1722"
         width="560"
         height="60"
         x="560"
         y="698.27509" />
      <text
         xml:space="preserve"
         style="font-style:normal;font-variant:normal;font-weight:normal;font-stretch:normal;font-size:21.33333397px;line-height:1.25;font-family:'Purely Me';-inkscape-font-specification:'Purely Me';letter-spacing:0px;word-spacing:0px;display:inline;fill:#ffffff;fill-opacity:1;stroke:none"
         x="1212.3307"
         y="734.22711"
         id="text1726"><tspan
           sodipodi:role="line"
           id="tspan1724"
           x="1212.3307"
           y="734.22711">Login</tspan></text>
      <text
         xml:space="preserve"
         style="font-style:normal;font-variant:normal;font-weight:normal;font-stretch:normal;font-size:21.33333397px;line-height:1.25;font-family:'Purely Me';-inkscape-font-specification:'Purely Me';letter-spacing:0px;word-spacing:0px;display:inline;fill:#ffffff;fill-opacity:1;stroke:none"
         x="576.13733"
         y="733.8111"
         id="text1730"><tspan
           sodipodi:role="line"
           id="tspan1728"
           x="576.13733"
           y="733.8111">Error Response</tspan></text>
      <path
         style="display:inline;opacity:0.7;fill:#111111;fill-opacity:1;stroke:#38d927;stroke-width:3;stroke-miterlimit:4;stroke-dasharray:none;stroke-opacity:1"
         d="m 584,409.27508 c -13.296,0 -24,10.704 -24,24 v 36 36 24 h 24 752 24 v -24 -36 -36 c 0,-13.296 -10.704,-24 -24,-24 z"
         id="path1732"
         inkscape:connector-curvature="0" />
      <text
         xml:space="preserve"
         style="font-style:normal;font-variant:normal;font-weight:normal;font-stretch:normal;font-size:64px;line-height:1.25;font-family:'Purely Me';-inkscape-font-specification:'Purely Me';letter-spacing:0px;word-spacing:0px;display:inline;fill:#ffffff;fill-opacity:1;stroke:none"
         x="575.21997"
         y="660.17108"
         id="text1736"><tspan
           sodipodi:role="line"
           id="tspan1734"
           x="575.21997"
           y="660.17108">Password</tspan></text>
      <text
         xml:space="preserve"
         style="font-style:normal;font-variant:normal;font-weight:normal;font-stretch:normal;font-size:21.33333397px;line-height:1.25;font-family:'Purely Me';-inkscape-font-specification:'Purely Me';letter-spacing:0px;word-spacing:0px;display:inline;fill:#ffffff;fill-opacity:1;stroke:none"
         x="576.0733"
         y="561.53241"
         id="text1740"><tspan
           sodipodi:role="line"
           id="tspan1738"
           x="576.0733"
           y="561.53241">Please Enter Your Password</tspan></text>
      <text
         id="text1744"
         y="494.17108"
         x="575.21997"
         style="font-style:normal;font-variant:normal;font-weight:normal;font-stretch:normal;font-size:64px;line-height:1.25;font-family:'Purely Me';-inkscape-font-specification:'Purely Me';letter-spacing:0px;word-spacing:0px;display:inline;fill:#ffffff;fill-opacity:1;stroke:none"
         xml:space="preserve"><tspan
           y="494.17108"
           x="575.21997"
           id="tspan1742"
           sodipodi:role="line">Username</tspan></text>
    </g>
  </g>
  <g
     inkscape:groupmode="layer"
     id="layer14"
     inkscape:label="User Login Page"
     style="display:inline">
    <rect
       style="opacity:0.7;fill:#111111;fill-opacity:1;stroke:none;stroke-width:3;stroke-miterlimit:4;stroke-dasharray:none;stroke-opacity:1"
       id="rect1765"
       width="1920"
       height="1020"
       x="0"
       y="60"
       ry="0" />
    <rect
       rx="16"
       ry="24"
       y="330"
       x="1200"
       height="480"
       width="320"
       id="rect1789"
       style="opacity:1;fill:none;fill-opacity:1;stroke:#822aba;stroke-width:3;stroke-miterlimit:4;stroke-dasharray:none;stroke-opacity:1" />
    <path
       style="opacity:1;fill:#38d927;fill-opacity:1;stroke:#38d927;stroke-width:3;stroke-miterlimit:4;stroke-dasharray:none;stroke-opacity:1"
       d="m 1358.5559,542.53458 v 26.01987 h -26.0213 v 2.88967 h 26.0213 v 26.0213 h 2.8897 v -26.0213 h 26.0198 v -2.88967 h -26.0198 v -26.01987 z"
       id="rect1791"
       inkscape:connector-curvature="0" />
    <text
       xml:space="preserve"
       style="font-style:normal;font-variant:normal;font-weight:normal;font-stretch:normal;font-size:26.66666603px;line-height:1.25;font-family:'Purely Me';-inkscape-font-specification:'Purely Me';text-align:center;letter-spacing:0px;word-spacing:0px;text-anchor:middle;fill:#38d927;fill-opacity:1;stroke:none"
       x="1360.08"
       y="633.14197"
       id="text1798"><tspan
         sodipodi:role="line"
         id="tspan1796"
         x="1360.08"
         y="633.14197">Create</tspan><tspan
         sodipodi:role="line"
         x="1360.08"
         y="666.47528"
         id="tspan1800">Budtet</tspan></text>
    <g
       inkscape:groupmode="layer"
       id="layer15"
       inkscape:label="User Login -- Budget Card"
       style="display:none">
      <rect
         style="display:inline;opacity:1;fill:none;fill-opacity:1;stroke:#822aba;stroke-width:3;stroke-miterlimit:4;stroke-dasharray:none;stroke-opacity:1"
         id="rect1767"
         width="320"
         height="480"
         x="800"
         y="330"
         ry="24"
         rx="16" />
      <rect
         style="display:inline;opacity:1;fill:#000000;fill-opacity:0;stroke:#822aba;stroke-width:3;stroke-miterlimit:4;stroke-dasharray:none;stroke-opacity:1"
         id="rect1769"
         width="256"
         height="216"
         x="832"
         y="384"
         ry="30" />
      <text
         xml:space="preserve"
         style="font-style:normal;font-variant:normal;font-weight:normal;font-stretch:normal;font-size:18.66666603px;line-height:1.25;font-family:'Purely Me';-inkscape-font-specification:'Purely Me';letter-spacing:0px;word-spacing:0px;display:inline;fill:#822aba;fill-opacity:1;stroke:none"
         x="900.09882"
         y="366.24799"
         id="text1773"><tspan
           sodipodi:role="line"
           id="tspan1771"
           x="900.09882"
           y="366.24799">Budget Title</tspan></text>
      <text
         id="text1781"
         y="796"
         x="931.97894"
         style="font-style:normal;font-variant:normal;font-weight:normal;font-stretch:normal;font-size:13.33333302px;line-height:1.25;font-family:'Purely Me';-inkscape-font-specification:'Purely Me';letter-spacing:0px;word-spacing:0px;display:inline;fill:#822aba;fill-opacity:1;stroke:none"
         xml:space="preserve"><tspan
           y="796"
           x="931.97894"
           id="tspan1779"
           sodipodi:role="line">Last Updated: 4 Oct 2021</tspan></text>
      <text
         xml:space="preserve"
         style="font-style:normal;font-variant:normal;font-weight:normal;font-stretch:normal;font-size:18.66666603px;line-height:1.25;font-family:'Purely Me';-inkscape-font-specification:'Purely Me';text-align:center;letter-spacing:0px;word-spacing:0px;text-anchor:middle;display:inline;fill:#822aba;fill-opacity:1;stroke:none"
         x="960.05597"
         y="485.7298"
         id="text1785"><tspan
           sodipodi:role="line"
           id="tspan1783"
           x="960.05597"
           y="485.7298">Budget</tspan><tspan
           sodipodi:role="line"
           x="960.05597"
           y="509.06314"
           id="tspan1787">Image</tspan></text>
    </g>
    <g
       inkscape:groupmode="layer"
       id="layer16"
       inkscape:label="User Login -- Budget Card -- Hovered"
       style="display:none">
      <rect
         style="display:inline;opacity:1;fill:#822aba;fill-opacity:1;stroke:#822aba;stroke-width:3;stroke-miterlimit:4;stroke-dasharray:none;stroke-opacity:1"
         id="rect1814"
         width="320"
         height="480"
         x="1200"
         y="330"
         ry="24"
         rx="16" />
      <path
         inkscape:connector-curvature="0"
         id="path1817"
         d="m 1358.5559,542.53458 v 26.01987 h -26.0213 v 2.88967 h 26.0213 v 26.0213 h 2.8897 v -26.0213 h 26.0198 v -2.88967 h -26.0198 v -26.01987 z"
         style="display:inline;opacity:1;fill:#38d927;fill-opacity:1;stroke:#38d927;stroke-width:3;stroke-miterlimit:4;stroke-dasharray:none;stroke-opacity:1" />
      <text
         id="text1823"
         y="633.14197"
         x="1360.08"
         style="font-style:normal;font-variant:normal;font-weight:normal;font-stretch:normal;font-size:26.66666603px;line-height:1.25;font-family:'Purely Me';-inkscape-font-specification:'Purely Me';text-align:center;letter-spacing:0px;word-spacing:0px;text-anchor:middle;display:inline;fill:#38d927;fill-opacity:1;stroke:none"
         xml:space="preserve"><tspan
           y="633.14197"
           x="1360.08"
           id="tspan1819"
           sodipodi:role="line">Create</tspan><tspan
           id="tspan1821"
           y="666.47528"
           x="1360.08"
           sodipodi:role="line">Budtet</tspan></text>
      <path
         style="display:inline;opacity:1;fill:#822aba;fill-opacity:1;stroke:#822aba;stroke-width:3;stroke-miterlimit:4;stroke-dasharray:none;stroke-opacity:1"
         d="m 816,330 c -8.864,0 -16,10.704 -16,24 v 432 c 0,13.296 7.136,24 16,24 h 288 c 8.864,0 16,-10.704 16,-24 V 354 c 0,-13.296 -7.136,-24 -16,-24 z m 46,54 h 196 c 16.62,0 30,13.38 30,30 v 156 c 0,16.62 -13.38,30 -30,30 H 862 c -16.62,0 -30,-13.38 -30,-30 V 414 c 0,-16.62 13.38,-30 30,-30 z"
         id="rect1851"
         inkscape:connector-curvature="0" />
      <text
         id="text1857"
         y="366.24799"
         x="900.09882"
         style="font-style:normal;font-variant:normal;font-weight:normal;font-stretch:normal;font-size:18.66666603px;line-height:1.25;font-family:'Purely Me';-inkscape-font-specification:'Purely Me';letter-spacing:0px;word-spacing:0px;display:inline;fill:#ffffff;fill-opacity:1;stroke:none"
         xml:space="preserve"><tspan
           y="366.24799"
           x="900.09882"
           id="tspan1855"
           sodipodi:role="line">Budget Title</tspan></text>
      <text
         xml:space="preserve"
         style="font-style:normal;font-variant:normal;font-weight:normal;font-stretch:normal;font-size:13.33333302px;line-height:1.25;font-family:'Purely Me';-inkscape-font-specification:'Purely Me';letter-spacing:0px;word-spacing:0px;display:inline;fill:#ffffff;fill-opacity:1;stroke:none"
         x="931.97894"
         y="796"
         id="text1861"><tspan
           sodipodi:role="line"
           id="tspan1859"
           x="931.97894"
           y="796">Last Updated: 4 Oct 2021</tspan></text>
      <text
         id="text1867"
         y="485.7298"
         x="960.05597"
         style="font-style:normal;font-variant:normal;font-weight:normal;font-stretch:normal;font-size:18.66666603px;line-height:1.25;font-family:'Purely Me';-inkscape-font-specification:'Purely Me';text-align:center;letter-spacing:0px;word-spacing:0px;text-anchor:middle;display:inline;fill:#ffffff;fill-opacity:1;stroke:none"
         xml:space="preserve"><tspan
           y="485.7298"
           x="960.05597"
           id="tspan1863"
           sodipodi:role="line">Budget</tspan><tspan
           id="tspan1865"
           y="509.06314"
           x="960.05597"
           sodipodi:role="line">Image</tspan></text>
    </g>
    <g
       inkscape:groupmode="layer"
       id="layer17"
       inkscape:label="User Login -- Budget Card -- Active"
       style="display:none">
      <path
         id="path1879"
         d="m 816,330 c -8.864,0 -16,10.704 -16,24 v 432 c 0,13.296 7.136,24 16,24 h 288 c 8.864,0 16,-10.704 16,-24 V 354 c 0,-13.296 -7.136,-24 -16,-24 z m 46,54 h 196 c 16.62,0 30,13.38 30,30 v 156 c 0,16.62 -13.38,30 -30,30 H 862 c -16.62,0 -30,-13.38 -30,-30 V 414 c 0,-16.62 13.38,-30 30,-30 z"
         style="display:inline;opacity:1;fill:#38d927;fill-opacity:1;stroke:#ffffff;stroke-width:3;stroke-miterlimit:4;stroke-dasharray:none;stroke-opacity:1"
         inkscape:connector-curvature="0" />
      <text
         xml:space="preserve"
         style="font-style:normal;font-variant:normal;font-weight:normal;font-stretch:normal;font-size:18.66666603px;line-height:1.25;font-family:'Purely Me';-inkscape-font-specification:'Purely Me';letter-spacing:0px;word-spacing:0px;display:inline;fill:#ffffff;fill-opacity:1;stroke:none"
         x="900.09882"
         y="366.24799"
         id="text1883"><tspan
           sodipodi:role="line"
           id="tspan1881"
           x="900.09882"
           y="366.24799">Budget Title</tspan></text>
      <text
         id="text1887"
         y="796"
         x="872.66022"
         style="font-style:normal;font-variant:normal;font-weight:normal;font-stretch:normal;font-size:13.33333302px;line-height:1.25;font-family:'Purely Me';-inkscape-font-specification:'Purely Me';letter-spacing:0px;word-spacing:0px;display:inline;fill:#ffffff;fill-opacity:1;stroke:none"
         xml:space="preserve"><tspan
           y="796"
           x="872.66022"
           id="tspan1885"
           sodipodi:role="line">Last Updated: 4 Oct 2021</tspan></text>
      <text
         xml:space="preserve"
         style="font-style:normal;font-variant:normal;font-weight:normal;font-stretch:normal;font-size:18.66666603px;line-height:1.25;font-family:'Purely Me';-inkscape-font-specification:'Purely Me';text-align:center;letter-spacing:0px;word-spacing:0px;text-anchor:middle;display:inline;fill:#ffffff;fill-opacity:1;stroke:none"
         x="960.05597"
         y="485.7298"
         id="text1893"><tspan
           sodipodi:role="line"
           id="tspan1889"
           x="960.05597"
           y="485.7298">Budget</tspan><tspan
           sodipodi:role="line"
           x="960.05597"
           y="509.06314"
           id="tspan1891">Image</tspan></text>
      <rect
         rx="16"
         ry="24"
         y="330"
         x="1200"
         height="480"
         width="320"
         id="rect1903"
         style="display:inline;opacity:1;fill:#38d927;fill-opacity:1;stroke:#ffffff;stroke-width:3;stroke-miterlimit:4;stroke-dasharray:none;stroke-opacity:1" />
      <path
         style="display:inline;opacity:1;fill:#ffffff;fill-opacity:1;stroke:#ffffff;stroke-width:3;stroke-miterlimit:4;stroke-dasharray:none;stroke-opacity:1"
         d="m 1358.5559,542.53458 v 26.01987 h -26.0213 v 2.88967 h 26.0213 v 26.0213 h 2.8897 v -26.0213 h 26.0198 v -2.88967 h -26.0198 v -26.01987 z"
         id="path1905"
         inkscape:connector-curvature="0" />
      <text
         xml:space="preserve"
         style="font-style:normal;font-variant:normal;font-weight:normal;font-stretch:normal;font-size:26.66666603px;line-height:1.25;font-family:'Purely Me';-inkscape-font-specification:'Purely Me';text-align:center;letter-spacing:0px;word-spacing:0px;text-anchor:middle;display:inline;fill:#ffffff;fill-opacity:1;stroke:none"
         x="1360.08"
         y="633.14197"
         id="text1911"><tspan
           sodipodi:role="line"
           id="tspan1907"
           x="1360.08"
           y="633.14197">Create</tspan><tspan
           sodipodi:role="line"
           x="1360.08"
           y="666.47528"
           id="tspan1909">Budtet</tspan></text>
    </g>
    <text
       xml:space="preserve"
       style="font-style:normal;font-variant:normal;font-weight:normal;font-stretch:normal;font-size:74.66666412px;line-height:1.25;font-family:'Purely Me';-inkscape-font-specification:'Purely Me';letter-spacing:0px;word-spacing:0px;fill:#ffffff;fill-opacity:1;stroke:none"
       x="640.53943"
       y="233.48021"
       id="text1920"><tspan
         sodipodi:role="line"
         id="tspan1918"
         x="640.53943"
         y="233.48021">Welcome Nathan</tspan></text>
  </g>
  <g
     inkscape:groupmode="layer"
     id="layer13"
     inkscape:label="User Profile Page"
     style="display:inline">
    <rect
       ry="0"
       y="60"
       x="0"
       height="1020"
       width="1920"
       id="rect1922"
       style="display:inline;opacity:0.7;fill:#111111;fill-opacity:1;stroke:none;stroke-width:3;stroke-miterlimit:4;stroke-dasharray:none;stroke-opacity:1" />
    <text
       id="text1926"
       y="233.48021"
       x="640.53943"
       style="font-style:normal;font-variant:normal;font-weight:normal;font-stretch:normal;font-size:74.66666412px;line-height:1.25;font-family:'Purely Me';-inkscape-font-specification:'Purely Me';letter-spacing:0px;word-spacing:0px;display:inline;fill:#ffffff;fill-opacity:1;stroke:none"
       xml:space="preserve"><tspan
         y="233.48021"
         x="640.53943"
         id="tspan1924"
         sodipodi:role="line">Welcome Nathan</tspan></text>
  </g>
  <g
     inkscape:groupmode="layer"
     id="layer18"
     inkscape:label="User Logged In - Navigation"
     style="display:none">
    <g
       inkscape:groupmode="layer"
       id="layer19"
       inkscape:label="Navigation Bar">
      <rect
         y="-2.2737368e-13"
         x="0"
         height="60"
         width="1920"
         id="rect953"
         style="display:inline;opacity:1;fill:#822aba;fill-opacity:1;stroke:none" />
      <g
         transform="matrix(0.06198668,0,0,0.06198668,-27.834093,-3.0539462)"
         id="g957"
         inkscape:label="Layer 1"
         style="display:inline;opacity:1;fill:#ffffff">
        <path
           inkscape:export-ydpi="96"
           inkscape:export-xdpi="96"
           inkscape:connector-curvature="0"
           d="m 811.22143,504.5709 -156.3242,-176.9882 140.5511,12.5202 c 6.0579,80.3562 82.0529,75.2063 105.4514,45.4787 44.048,-56.2086 -5.7477,-106.0856 -48.1545,-104.0075 l 59.2596,-106.1619 106.74747,62.6834 c -57.57547,26.8143 -40.51177,102.3362 12.4264,114.1146 48.4008,11.2094 97.0667,-32.4107 65.2419,-92.2187 l 113.8331,-81.2162 -46.8381,231.4255 z m 5.612,20.9437 352.19397,-94.3701 13.2119,49.3072 -352.19397,94.3701 z m 335.81687,-37.1357 -117.871,31.5839 c 2.2377,0.6141 4.2607,1.2356 5.9707,1.8575 14.9653,4.5546 24.0759,11.0614 29.2812,18.2187 5.856,7.1574 10.4102,16.9175 10.4102,36.4375 0,21.472 -4.5558,32.5335 -11.0625,40.9922 -5.856,7.808 -14.9646,14.3142 -29.2793,19.5195 -18.8693,6.5067 -74.8262,14.3161 -74.8262,10.4121 -5.9619,0 -7.7158,-67.5185 -5.2734,-107.4003 l -100.3907,26.9003 c -0.2655,27.2778 -0.39449,56.4561 -0.39449,85.7051 0,117.12 1.9512,234.2403 6.50589,234.2403 0,2.6027 24.7257,3.9023 49.4511,3.9023 24.7253,0.6507 50.1016,-1.2996 50.1016,-3.9023 8.45871,0 0,-149.0042 0,-152.9083 0,-3.2534 4.5539,-3.2519 6.5059,-3.2519 7.808,0 104.1072,149.0011 113.8672,155.5078 9.76,6.5066 115.168,6.5066 115.168,0 0,-6.5067 -111.2637,-167.221 -111.2638,-171.125 0,-9.1093 45.5457,-24.0747 62.463,-46.1973 18.2187,-24.0747 27.9785,-56.6078 27.9785,-92.3945 0,-34.2978 -9.9228,-64.871 -27.3419,-88.0976 z"
           style="fill:#ffffff;fill-opacity:1;stroke:none;stroke-width:2.13909268px;stroke-linecap:butt;stroke-linejoin:miter;stroke-opacity:1"
           id="path955" />
      </g>
      <path
         inkscape:connector-curvature="0"
         id="path959"
         d="m 157.53711,18.242188 c -0.888,0 -1.75195,0.04797 -1.75195,0.167968 -0.192,0 -0.26368,4.583969 -0.26368,9.167969 0,4.584 0.0717,9.191406 0.26368,9.191406 0,0.12 0.86395,0.167969 1.75195,0.167969 0.888,0 1.77539,-0.04797 1.77539,-0.167969 0.36,0 0.14387,-6.022859 0.67188,-7.630859 0.264,-0.792 0.6015,-1.272547 0.9375,-1.560547 0.36,-0.264 0.81568,-0.527344 1.67968,-0.527344 0.888,0 1.24772,0.240469 1.51172,0.480469 0.264,0.24 0.52814,0.670328 0.74414,1.486328 0.384,1.608 -0.0241,7.751953 0.33594,7.751953 0,0.24 3.52734,0.24 3.52734,0 0.12,0 0.19336,-0.695125 0.19336,-1.703125 0,-2.016 -0.24043,-5.280109 -0.64844,-6.912109 -0.28799,-1.224 -0.81621,-2.399672 -1.82421,-3.263672 -0.984,-0.888 -2.35185,-1.369141 -3.83985,-1.369141 -1.224,0 -3.28906,1.2495 -3.28906,0.9375 -0.36,0 0.36,-6.048828 0,-6.048828 0,-0.12 -0.88739,-0.167968 -1.77539,-0.167968 z m 52.84766,0 c -0.816,0 -1.65625,0.04797 -1.65625,0.167968 -0.408,0 0.288,5.976563 0,5.976563 -0.408,0 -1.29593,-0.385297 -1.91993,-0.529297 -0.384,-0.096 -0.76695,-0.142578 -1.12695,-0.142578 -1.128,-0.048 -2.16139,0.24014 -3.02539,0.74414 -2.232,1.32 -3.19141,3.502969 -3.19141,5.542969 0,1.752 0.31208,3.455985 1.08008,4.583985 0.792,1.104 1.9691,2.351562 3.1211,2.351562 1.656,0 5.0625,-0.599078 5.0625,-0.455078 0.072,0 0,0.263109 0,0.287109 0,0.24 3.36132,0.24 3.36132,0 0.12,0 0.24024,-6.382672 0.24024,-11.638672 0,-3.648 -0.0722,-6.720703 -0.24024,-6.720703 0,-0.12 -0.84107,-0.191969 -1.70507,-0.167968 z M 75.841797,18.722656 c -1.296,0 -1.65625,0.934766 -1.65625,2.134766 0,0.72 0.24025,1.896484 1.65625,1.896484 1.416,0 1.65625,-0.936484 1.65625,-1.896484 0,-1.2 -0.36025,-2.134766 -1.65625,-2.134766 z m 63.119143,0 c -1.296,0 -1.65625,0.934766 -1.65625,2.134766 0,0.72 0.24025,1.896484 1.65625,1.896484 1.416,0 1.65625,-0.936484 1.65625,-1.896484 0,-1.2 -0.36025,-2.134766 -1.65625,-2.134766 z m -77.748049,0.947266 c -0.882,0 -1.763672,0.05969 -1.763672,0.179687 -0.192,0 -0.263672,4.225219 -0.263672,8.449219 0,4.224 0.07167,8.470703 0.263672,8.470703 0,0.24 3.527343,0.24 3.527343,0 0.336,0 -0.36,-5.638672 0,-5.638672 0.336,-0.216 4.105704,5.638672 4.345704,5.638672 0,0.12 1.102468,0.167969 2.230468,0.167969 1.104,0 2.208985,-0.04797 2.208985,-0.167969 0,-0.24 -6.648438,-8.230672 -6.648438,-8.638672 0,-0.504 6.671875,-8.01725 6.671875,-8.28125 0,-0.12 -1.127859,-0.167968 -2.255859,-0.167968 -1.128,0 -2.279297,0.04797 -2.279297,0.167968 -0.408,0 -4.273438,5.880688 -4.273438,5.304688 -0.359999,0 0.336001,-5.304688 0,-5.304688 0,-0.12 -0.881671,-0.179687 -1.763671,-0.179687 z m 61.499999,0.01172 c -0.096,0 -0.16797,8.28e-4 -0.16797,0.04883 -0.168,0 -0.24023,4.199828 -0.24023,8.423828 0,4.32 0.0722,8.640625 0.24023,8.640625 0,0.096 0.91222,0.142578 1.82422,0.142578 0.912,0.024 1.84766,-0.04658 1.84766,-0.142578 0.312,0 0,-5.496625 0,-5.640625 0,-0.12 0.16823,-0.119141 0.24023,-0.119141 0.288,0 3.84117,5.494375 4.20117,5.734375 0.36,0.24 4.24805,0.24 4.24805,0 0,-0.24 -4.10547,-6.166547 -4.10547,-6.310547 0,-0.336 1.68069,-0.889078 2.30469,-1.705078 0.672,-0.888 1.03125,-2.088203 1.03125,-3.408203 0,-1.296 -0.38269,-2.446547 -1.05469,-3.310547 -0.696,-0.864 -1.63292,-1.392515 -2.54492,-1.728515 -1.848,-0.624 -4.8002,-0.576172 -6.4082,-0.576172 -0.336,0 -0.93549,-0.04883 -1.27149,-0.04883 z m 3.5918,3.234375 c 0.057,-0.006 0.14004,-0.0061 0.24804,0.0059 0.624,0.024 1.92122,0.216203 2.44922,0.408203 0.552,0.168 0.88808,0.407875 1.08008,0.671875 0.216,0.264 0.38281,0.62375 0.38281,1.34375 0,0.792 -0.1682,1.199719 -0.4082,1.511719 -0.216,0.288 -0.55208,0.528703 -1.08008,0.720703 -0.696,0.24 -2.75976,0.528766 -2.75976,0.384766 -0.312,0 -0.312,-5.015625 0,-5.015625 0,-0.012 0.0309,-0.02525 0.0879,-0.03125 z M 82.25,23.498047 c -0.816,0 -1.632812,0.07141 -1.632812,0.191406 0,2.904 -0.167969,7.75225 -0.167969,10.65625 0,1.464 0.04797,2.423828 0.167969,2.423828 0,0.24 3.263671,0.24 3.263671,0 0.12,0 0.576313,-6.335922 1.320313,-7.919922 0.744,-1.608 1.440515,-1.919921 1.728516,-1.919921 0.263999,0 0.984515,0.335921 1.728515,1.919921 0.744,1.608 1.318359,4.271922 1.318359,7.919922 0,0.12 0.81625,0.191969 1.65625,0.167969 0.792001,0 1.609376,-0.04797 1.609376,-0.167969 0,-3.984 -0.601376,-7.055109 -1.609376,-9.287109 -1.031999,-2.208 -2.639124,-3.816406 -4.703124,-3.816406 -1.176001,0 -2.688829,1.392578 -3.048829,1.392578 -0.12,0 -0.024,-0.913141 0,-1.369141 0.024,-0.12 -0.814859,-0.191406 -1.630859,-0.191406 z m 18.88672,0 c -0.096,0 -0.19167,-5.63e-4 -0.26367,0.02344 -1.320003,0.096 -2.423941,0.480078 -3.335941,1.080078 -1.776,1.2 -2.519531,3.168219 -2.519531,4.824219 0,1.8 0.647125,3.336875 1.703125,4.296875 1.056,0.96 2.353563,1.343453 3.601567,1.439453 1.224,0.096 2.42251,-0.09508 3.47851,-0.455078 0.312,-0.12 0.6975,-0.384765 0.9375,-0.384765 0.24,-0.144 0.14397,1.055718 0.16797,1.511718 0.024,0.912 -0.26559,1.344547 -0.43359,1.560547 h -0.0234 c 0,0.024 5.6e-4,0.02344 -0.0234,0.02344 -0.216,0.288 -0.95986,1.032078 -2.25586,1.080078 -1.296,0.072 -3.359613,-1.392578 -3.599613,-1.392578 -0.263999,-0.264 -2.71375,1.537078 -2.59375,1.705078 0,0.312 3.240032,2.711734 5.832033,2.927734 0.168,0 0.31247,0.02344 0.48047,0.02344 1.848,0 3.48054,-0.911031 4.56055,-2.207031 0.888,-1.008001 1.10352,-2.305297 1.10352,-3.529297 v -0.28711 c -0.024,-1.344 -0.28818,-2.711515 -0.57618,-4.103515 -0.312,-1.44 -0.59901,-2.90461 -0.79101,-4.22461 0,-1.176 0.264,-3.503906 0,-3.503906 0,-0.144 -3.00001,-0.383375 -3.00001,-0.359375 -0.144,0 -0.0254,0.07114 -0.0254,0.119141 0,0.072 -1.53582,-0.167969 -2.42382,-0.167969 z m 47.35351,0 c -1.2,0 -2.68814,0.336281 -3.74414,1.488281 -1.08,1.152 -1.58398,2.832156 -1.58398,5.160156 0,2.016 0.21495,3.624485 1.12695,4.896485 0.912,1.32 2.52117,1.894531 4.20117,1.894531 1.536,0 2.78388,-0.502391 3.67188,-1.150391 0.864,-0.624 1.39169,-1.345015 1.67969,-2.041015 0.048,-0.048 0.0469,-0.09597 0.0469,-0.167969 0,-0.096 -0.0243,-0.168234 -0.0723,-0.240234 -0.072,-0.12 -0.16711,-0.19111 -0.28711,-0.28711 -0.216,-0.168 -0.52728,-0.31164 -0.86328,-0.43164 -0.336,-0.144 -0.67294,-0.241063 -0.96094,-0.289063 -0.168,-0.024 -0.28764,-0.024 -0.43164,0 -0.144,0.024 -0.28738,0.0728 -0.35938,0.216797 0,0 -0.001,0.02344 -0.0254,0.02344 0,0 -0.0714,0.14311 -0.1914,0.28711 -0.12,0.144 -0.26447,0.336469 -0.48047,0.480469 -0.384,0.288 -0.91057,0.529296 -1.72657,0.529297 -0.528,0 -0.86407,-0.04853 -1.08007,-0.144532 -0.216,-0.072 -0.31247,-0.192203 -0.48047,-0.408203 -0.264,-0.384 -0.57617,-1.415969 -0.57617,-3.167969 0,-1.872 0.43157,-2.735703 0.76757,-3.095703 0.336,-0.36 0.69714,-0.457031 1.36914,-0.457031 0.408,0 0.8864,0.143937 1.15039,0.335938 0.288,0.239999 0.5293,0.504015 0.5293,1.416015 0,0.168 0.12024,0.287938 0.24024,0.335938 0.096,0.072 0.21537,0.09709 0.35937,0.121093 0.288,0.048 0.64838,0.07227 0.98438,0.07227 0.36,0 0.72037,-0.04966 0.98437,-0.09766 0.144,-0.024 0.26338,-0.0477 0.35938,-0.0957 0.048,-0.024 0.11996,-0.0477 0.16796,-0.0957 0.048,-0.048 0.0957,-0.144235 0.0957,-0.240235 0,-1.632 -0.67113,-2.999016 -1.70313,-3.791015 -1.008,-0.792001 -2.15997,-1.056641 -3.16797,-1.056641 z m 28.84766,0 c -1.848,0 -3.45684,0.864719 -4.46484,2.136719 -1.008,1.272 -1.48828,2.903984 -1.48828,4.583984 0,1.68 0.48028,3.287984 1.48828,4.583984 1.008,1.272 2.61684,2.134766 4.46484,2.134766 h 0.0723 c 0.024,0 0.0463,-0.02344 0.0703,-0.02344 1.56,-0.143999 3.45644,-1.824218 3.64844,-1.824218 0.264,0 3.09676,1.871656 3.38476,1.847656 h 0.0234 c 0.12,0 0.16797,-0.838297 0.16797,-1.654297 0,-0.816 -0.048,-1.609375 -0.16797,-1.609375 0,-0.336 -0.55208,-0.166719 -1.08008,-0.886719 -0.528,-0.72 -1.05489,-1.824562 -1.46289,-2.976562 -0.144,-0.408 -0.26477,-0.840047 -0.38476,-1.248047 -0.24001,-1.248 -0.50447,-2.352531 -0.48047,-3.144531 0,-0.528 0.288,-1.63086 0,-1.63086 -0.432,-0.024 -1.10425,-0.024 -1.65625,0 -0.144,0.024 -0.21508,0.0957 -0.45508,0.0957 -0.24,0 -1.10369,-0.384765 -1.67969,-0.384765 z m 11.85547,0 c -0.816,0 -1.63281,0.07141 -1.63281,0.191406 -0.12,0 -0.16797,3.241297 -0.16797,6.529297 0,3.264 0.048,6.550781 0.16797,6.550781 0,0.12 0.84025,0.191969 1.65625,0.167969 0.816,0 1.63281,-0.04797 1.63281,-0.167969 0,-4.128 0.33608,-6.744187 1.08008,-7.992187 0.384,-0.624 0.79198,-0.982922 1.58398,-1.294922 0.792,-0.312 2.01644,-0.527344 3.64844,-0.527344 0.24,0 0.33594,-0.84025 0.33594,-1.65625 0,-0.816 -0.11994,-1.609375 -0.33594,-1.609375 -1.872,0 -3.48022,0.216141 -4.82422,0.744141 -0.552,0.216 -1.27228,0.839844 -1.48828,0.839844 -0.24,0 0.216,-1.583985 0,-1.583985 0,-0.12 -0.84025,-0.191406 -1.65625,-0.191406 z m -113.388672,0.05469 c -0.810001,0 -1.619141,0.05411 -1.619141,0.16211 0.12,0.504 -0.07227,8.086703 -0.07227,11.470703 0,0.984 0.02427,1.609375 0.07227,1.609375 0,0.096 0.815422,0.142578 1.607422,0.142578 0.816,0 1.632812,-0.04658 1.632812,-0.142578 0.24,0 -0.168,-12.432078 0,-13.080078 0,-0.108 -0.811093,-0.16211 -1.621093,-0.16211 z m 63.121092,0 c -0.81,0 -1.62109,0.05411 -1.62109,0.16211 0.12,0.504 -0.0723,8.086703 -0.0723,11.470703 0,0.984 0.0243,1.609375 0.0723,1.609375 0,0.096 0.81737,0.142578 1.60937,0.142578 0.816,0 1.63086,-0.04658 1.63086,-0.142578 0.24,0 -0.168,-12.432078 0,-13.080078 0,-0.108 -0.80914,-0.16211 -1.61914,-0.16211 z m -36.40234,3.128907 c 0.498,0.027 0.91797,0.09261 0.91797,0.224609 0.096,0 0.0477,0.768344 0.0957,1.152344 0,1.08 0.0238,2.880531 -0.24024,3.144531 -0.216,0.216 -0.26417,0.31025 -0.57617,0.40625 -0.648,0.24 -1.39159,0.361062 -2.18359,0.289063 -0.768004,-0.048 -1.344519,-0.23961 -1.728519,-0.59961 -0.408,-0.36 -0.646485,-0.816484 -0.646485,-1.896484 0,-0.672 0.19125,-1.535328 1.03125,-2.111328 0.432,-0.288 1.055364,-0.529563 1.943364,-0.601563 0.312,-0.024 0.88871,-0.03481 1.38671,-0.0078 z m 74.81445,0.08008 c 0.096,0 0.40678,0.09597 0.55078,0.167969 0.12,0.096 0.12053,0.288203 0.14453,0.408203 0.072,0.408 0.0968,0.816875 0.2168,1.296875 0.216,1.128 0.45591,2.16 0.50391,3 0.048,0.792 -0.0728,1.296281 -0.2168,1.488281 -0.144,0.216 -0.38292,0.431344 -1.29492,0.527344 -0.84,-0.024 -1.36878,-0.312672 -1.80078,-0.888672 -0.48,-0.576 -0.79297,-1.486969 -0.79297,-2.542969 0,-1.056 0.31297,-1.968922 0.79297,-2.544922 0.456,-0.6 0.98448,-0.912109 1.89648,-0.912109 z m 27.95899,0.289062 c 0.23999,0 0.47957,0.0237 0.76757,0.0957 0.648,0.144 2.66407,0.07092 2.66407,1.294922 0,0.672 0.408,4.728219 0,4.824219 -1.296,0.384 -3.40832,0.600203 -4.32032,0.408203 -0.6,-0.144 -0.86351,-0.287047 -1.10351,-0.623047 -0.24,-0.36 -0.48047,-1.704828 -0.48047,-3.048828 0,-0.72 0.67255,-2.112625 1.56055,-2.640625 0.264,-0.168 0.5521,-0.286547 0.91211,-0.310547 z"
         style="font-style:normal;font-variant:normal;font-weight:normal;font-stretch:normal;font-size:24px;line-height:1.25;font-family:'Purely Me';-inkscape-font-specification:'Purely Me';letter-spacing:0px;word-spacing:0px;display:inline;opacity:1;fill:#ffffff;fill-opacity:1;stroke:none" />
      <path
         id="path1072"
         d="m 1150.7736,-520.10335 h -64 v -64 c 0,-8.8 -7.2,-16 -16,-16 h -32 c -8.8,0 -16,7.2 -16,16 v 64 h -64.00003 c -8.8,0 -16,7.2 -16,16 v 31.99999 c 0,8.8 7.2,16 16,16 h 64.00003 v 64 c 0,8.8 7.2,16 16,16 h 32 c 8.8,0 16,-7.2 16,-16 v -64 h 64 c 8.8,0 16,-7.2 16,-16 v -31.99999 c 0,-8.8 -7.2,-16 -16,-16 z m -400.00003,47.99999 c 70.7,0 128,-57.29999 128,-127.99999 0,-70.7 -57.3,-128 -128,-128 -70.7,0 -128,57.3 -128,128 0,70.7 57.3,127.99999 128,127.99999 z m 89.6,32 h -16.7 c -22.2,10.2 -46.9,16 -72.9,16 -26,0 -50.6,-5.8 -72.9,-16 h -16.7 c -74.2,0 -134.4,60.2 -134.4,134.4 v 41.60001 c 0,26.5 21.5,48 48,48 h 352 c 26.5,0 48,-21.5 48,-48 v -41.60001 c 0,-74.2 -60.2,-134.4 -134.4,-134.4 z"
         inkscape:connector-curvature="0" />
      <path
         id="path1083"
         d="m 1431.1775,1945.8189 h -192 c -8.8,0 -16,7.2 -16,16 v 32 c 0,8.8 7.2,16 16,16 h 192 c 8.8,0 16,-7.2 16,-16 v -32 c 0,-8.8 -7.2,-16 -16,-16 z m -400,48 c 70.7,0 128,-57.3 128,-128 0,-70.7 -57.3,-128 -128,-128 -70.70002,0 -128.00002,57.3 -128.00002,128 0,70.7 57.3,128 128.00002,128 z m 89.6,32 h -16.7 c -22.2,10.2 -46.9,16 -72.9,16 -26,0 -50.60002,-5.8 -72.90002,-16 h -16.7 c -74.2,0 -134.4,60.2 -134.4,134.4 v 41.6 c 0,26.5 21.5,48 48,48 h 352.00002 c 26.5,0 48,-21.5 48,-48 v -41.6 c 0,-74.2 -60.2,-134.4 -134.4,-134.4 z"
         inkscape:connector-curvature="0" />
    </g>
    <g
       inkscape:groupmode="layer"
       id="layer20"
       inkscape:label="User Link">
      <path
         id="path1094"
         d="m 1638.0299,10.48 c -10.7831,0 -19.5199,8.736773 -19.5199,19.520001 0,10.783226 8.7368,19.519999 19.5199,19.519999 10.7834,0 19.5201,-8.736773 19.5201,-19.519999 0,-10.783228 -8.7367,-19.520001 -19.5201,-19.520001 z m 0,7.55613 c 3.8254,0 6.9265,3.101164 6.9265,6.926451 0,3.825293 -3.1011,6.92645 -6.9265,6.92645 -3.8251,0 -6.9263,-3.101157 -6.9263,-6.92645 0,-3.825287 3.1012,-6.926451 6.9263,-6.926451 z m 0,27.07613 c -4.6202,0 -8.7603,-2.09368 -11.5308,-5.368001 1.4797,-2.786319 4.3762,-4.706839 7.7528,-4.706839 0.1889,0 0.3779,0.0315 0.5588,0.08658 1.0233,0.330581 2.0938,0.543097 3.2192,0.543097 1.1256,0 2.204,-0.212516 3.2193,-0.543097 0.1811,-0.05508 0.37,-0.08658 0.5589,-0.08658 3.3766,0 6.2731,1.92052 7.7529,4.706839 -2.7705,3.274321 -6.9107,5.368001 -11.5311,5.368001 z"
         inkscape:connector-curvature="0"
         style="display:inline;fill:#ffffff;stroke-width:0.07870968" />
      <text
         xml:space="preserve"
         style="font-style:normal;font-variant:normal;font-weight:normal;font-stretch:normal;font-size:18.66666603px;line-height:1.25;font-family:'Purely Me';-inkscape-font-specification:'Purely Me';letter-spacing:0px;word-spacing:0px;display:inline;fill:#ffffff;fill-opacity:1;stroke:none"
         x="1665.27"
         y="37.265999"
         id="text1107"><tspan
           sodipodi:role="line"
           id="tspan1105"
           x="1665.27"
           y="37.265999">Nathan</tspan></text>
    </g>
    <g
       inkscape:label="Login Button copy"
       id="g995"
       inkscape:groupmode="layer"
       style="display:inline">
      <g
         style="display:inline"
         inkscape:label="Logout Button -- Default"
         id="g977"
         inkscape:groupmode="layer">
        <rect
           ry="19.140924"
           y="10.859076"
           x="1753.9291"
           height="38.281849"
           width="144.14185"
           id="rect1028"
           style="display:inline;opacity:1;fill:none;fill-opacity:1;stroke:#ffffff;stroke-width:0.75815129" />
        <text
           id="text1032"
           y="35.394665"
           x="1793.6881"
           style="font-style:normal;font-variant:normal;font-weight:normal;font-stretch:normal;font-size:18.66666603px;line-height:1.25;font-family:'Purely Me';-inkscape-font-specification:'Purely Me';letter-spacing:0px;word-spacing:0px;display:inline;opacity:1;fill:#ffffff;fill-opacity:1;stroke:none"
           xml:space="preserve"><tspan
             y="35.394665"
             x="1793.6881"
             id="tspan1030"
             sodipodi:role="line">Logout</tspan></text>
        <rect
           ry="19.140924"
           y="-98.733215"
           x="1197.428"
           height="38.281849"
           width="144.14185"
           id="rect1043"
           style="display:inline;opacity:1;fill:none;fill-opacity:1;stroke:#ffffff;stroke-width:0.75815129" />
        <text
           id="text1047"
           y="-74.384293"
           x="1238.7363"
           style="font-style:normal;font-variant:normal;font-weight:normal;font-stretch:normal;font-size:18.66666603px;line-height:1.25;font-family:'Purely Me';-inkscape-font-specification:'Purely Me';letter-spacing:0px;word-spacing:0px;display:inline;opacity:1;fill:#ffffff;fill-opacity:1;stroke:none"
           xml:space="preserve"><tspan
             y="-74.384293"
             x="1238.7363"
             id="tspan1045"
             sodipodi:role="line">Signup</tspan></text>
      </g>
      <g
         style="display:none"
         inkscape:label="Logout Button -- Hovered"
         id="g985"
         inkscape:groupmode="layer">
        <rect
           ry="19.140924"
           y="10.859076"
           x="1753.9291"
           height="38.281849"
           width="144.14185"
           id="rect1019"
           style="display:inline;opacity:1;fill:#ffffff;fill-opacity:1;stroke:#ffffff;stroke-width:0.75815129" />
        <text
           xml:space="preserve"
           style="font-style:normal;font-variant:normal;font-weight:normal;font-stretch:normal;font-size:18.66666603px;line-height:1.25;font-family:'Purely Me';-inkscape-font-specification:'Purely Me';letter-spacing:0px;word-spacing:0px;display:inline;opacity:1;fill:#822aba;fill-opacity:1;stroke:none"
           x="1793.6881"
           y="35.394665"
           id="text1023"><tspan
             sodipodi:role="line"
             id="tspan1021"
             x="1793.6881"
             y="35.394665">Logout</tspan></text>
      </g>
      <g
         style="display:none"
         inkscape:label="Logout Button -- Active"
         id="g993"
         inkscape:groupmode="layer">
        <rect
           ry="19.140924"
           y="10.859076"
           x="1753.9291"
           height="38.281849"
           width="144.14185"
           id="rect987"
           style="opacity:1;fill:#38d927;fill-opacity:1;stroke:#ffffff;stroke-width:0.75815129" />
        <text
           xml:space="preserve"
           style="font-style:normal;font-variant:normal;font-weight:normal;font-stretch:normal;font-size:18.66666603px;line-height:1.25;font-family:'Purely Me';-inkscape-font-specification:'Purely Me';letter-spacing:0px;word-spacing:0px;opacity:1;fill:#ffffff;fill-opacity:1;stroke:none"
           x="1801.7894"
           y="35.208"
           id="text991"><tspan
             sodipodi:role="line"
             id="tspan989"
             x="1801.7894"
             y="35.208">Login</tspan></text>
        <text
           xml:space="preserve"
           style="font-style:normal;font-variant:normal;font-weight:normal;font-stretch:normal;font-size:18.66666603px;line-height:1.25;font-family:'Purely Me';-inkscape-font-specification:'Purely Me';letter-spacing:0px;word-spacing:0px;display:inline;opacity:1;fill:#ffffff;fill-opacity:1;stroke:none"
           x="1463.8634"
           y="-65.844635"
           id="text1041"><tspan
             sodipodi:role="line"
             id="tspan1039"
             x="1463.8634"
             y="-65.844635">Login</tspan></text>
      </g>
    </g>
  </g>
</svg>
