<?xml version="1.0" encoding="UTF-8" standalone="no"?>
<!-- Created with Inkscape (http://www.inkscape.org/) -->

<svg
   xmlns:dc="http://purl.org/dc/elements/1.1/"
   xmlns:cc="http://creativecommons.org/ns#"
   xmlns:rdf="http://www.w3.org/1999/02/22-rdf-syntax-ns#"
   xmlns:svg="http://www.w3.org/2000/svg"
   xmlns="http://www.w3.org/2000/svg"
   xmlns:sodipodi="http://sodipodi.sourceforge.net/DTD/sodipodi-0.dtd"
   xmlns:inkscape="http://www.inkscape.org/namespaces/inkscape"
   width="555.35645"
   height="715.66107"
   viewBox="0 0 555.35645 715.66107"
   version="1.1"
   id="SVGRoot"
   inkscape:version="0.92.5 (2060ec1f9f, 2020-04-08)"
   sodipodi:docname="KingRichard-Logo.svg">
  <defs
     id="defs6191" />
  <sodipodi:namedview
     id="base"
     pagecolor="#ffffff"
     bordercolor="#666666"
     borderopacity="1.0"
     inkscape:pageopacity="0.0"
     inkscape:pageshadow="2"
     inkscape:zoom="0.35"
     inkscape:cx="589.48438"
     inkscape:cy="173.87332"
     inkscape:document-units="px"
     inkscape:current-layer="layer1"
     showgrid="true"
     inkscape:window-width="1920"
     inkscape:window-height="975"
     inkscape:window-x="1920"
     inkscape:window-y="40"
     inkscape:window-maximized="1">
    <inkscape:grid
       type="xygrid"
       id="grid6749"
       color="#3f3fff"
       opacity="0"
       spacingx="16"
       spacingy="12"
       originx="-654.89724"
       originy="-188.92675" />
  </sodipodi:namedview>
  <metadata
     id="metadata6194">
    <rdf:RDF>
      <cc:Work
         rdf:about="">
        <dc:format>image/svg+xml</dc:format>
        <dc:type
           rdf:resource="http://purl.org/dc/dcmitype/StillImage" />
        <dc:title></dc:title>
      </cc:Work>
    </rdf:RDF>
  </metadata>
  <g
     inkscape:label="Layer 1"
     inkscape:groupmode="layer"
     id="layer1"
     transform="translate(-654.89723,-175.4122)">
    <path
       id="path929"
       style="fill:#822aba;fill-opacity:1;stroke:none;stroke-width:2.13909268px;stroke-linecap:butt;stroke-linejoin:miter;stroke-opacity:1"
       d="m 811.22143,504.5709 -156.3242,-176.9882 140.5511,12.5202 c 6.0579,80.3562 82.0529,75.2063 105.4514,45.4787 44.048,-56.2086 -5.7477,-106.0856 -48.1545,-104.0075 l 59.2596,-106.1619 106.74747,62.6834 c -57.57547,26.8143 -40.51177,102.3362 12.4264,114.1146 48.4008,11.2094 97.0667,-32.4107 65.2419,-92.2187 l 113.8331,-81.2162 -46.8381,231.4255 z m 5.612,20.9437 352.19397,-94.3701 13.2119,49.3072 -352.19397,94.3701 z m 335.81687,-37.1357 -117.871,31.5839 c 2.2377,0.6141 4.2607,1.2356 5.9707,1.8575 14.9653,4.5546 24.0759,11.0614 29.2812,18.2187 5.856,7.1574 10.4102,16.9175 10.4102,36.4375 0,21.472 -4.5558,32.5335 -11.0625,40.9922 -5.856,7.808 -14.9646,14.3142 -29.2793,19.5195 -18.8693,6.5067 -74.8262,14.3161 -74.8262,10.4121 -5.9619,0 -7.7158,-67.5185 -5.2734,-107.4003 l -100.3907,26.9003 c -0.2655,27.2778 -0.39449,56.4561 -0.39449,85.7051 0,117.12 1.9512,234.2403 6.50589,234.2403 0,2.6027 24.7257,3.9023 49.4511,3.9023 24.7253,0.6507 50.1016,-1.2996 50.1016,-3.9023 8.45871,0 0,-149.0042 0,-152.9083 0,-3.2534 4.5539,-3.2519 6.5059,-3.2519 7.808,0 104.1072,149.0011 113.8672,155.5078 9.76,6.5066 115.168,6.5066 115.168,0 0,-6.5067 -111.2637,-167.221 -111.2638,-171.125 0,-9.1093 45.5457,-24.0747 62.463,-46.1973 18.2187,-24.0747 27.9785,-56.6078 27.9785,-92.3945 0,-34.2978 -9.9228,-64.871 -27.3419,-88.0976 z"
       inkscape:connector-curvature="0"
       inkscape:export-xdpi="96"
       inkscape:export-ydpi="96" />
  </g>
</svg>
