<?xml version="1.0" encoding="UTF-8" standalone="no"?>
<!-- Created with Inkscape (http://www.inkscape.org/) -->

<svg
   xmlns:dc="http://purl.org/dc/elements/1.1/"
   xmlns:cc="http://creativecommons.org/ns#"
   xmlns:rdf="http://www.w3.org/1999/02/22-rdf-syntax-ns#"
   xmlns:svg="http://www.w3.org/2000/svg"
   xmlns="http://www.w3.org/2000/svg"
   xmlns:sodipodi="http://sodipodi.sourceforge.net/DTD/sodipodi-0.dtd"
   xmlns:inkscape="http://www.inkscape.org/namespaces/inkscape"
   width="3840"
   height="2160"
   viewBox="0 0 3840 2160"
   version="1.1"
   id="SVGRoot"
   inkscape:version="0.92.5 (2060ec1f9f, 2020-04-08)"
   sodipodi:docname="Default-Budget-Cover-Photo.svg">
  <defs
     id="defs6191" />
  <sodipodi:namedview
     id="base"
     pagecolor="#ffffff"
     bordercolor="#666666"
     borderopacity="1.0"
     inkscape:pageopacity="0.0"
     inkscape:pageshadow="2"
     inkscape:zoom="0.17708334"
     inkscape:cx="2000.9421"
     inkscape:cy="585.35364"
     inkscape:document-units="px"
     inkscape:current-layer="layer1"
     showgrid="true"
     inkscape:window-width="1920"
     inkscape:window-height="975"
     inkscape:window-x="0"
     inkscape:window-y="40"
     inkscape:window-maximized="1">
    <inkscape:grid
       type="xygrid"
       id="grid6749"
       color="#3f3fff"
       opacity="0"
       spacingx="16"
       spacingy="12" />
  </sodipodi:namedview>
  <metadata
     id="metadata6194">
    <rdf:RDF>
      <cc:Work
         rdf:about="">
        <dc:format>image/svg+xml</dc:format>
        <dc:type
           rdf:resource="http://purl.org/dc/dcmitype/StillImage" />
        <dc:title></dc:title>
      </cc:Work>
    </rdf:RDF>
  </metadata>
  <g
     inkscape:label="Layer 1"
     inkscape:groupmode="layer"
     id="layer1"
     transform="translate(0,1080)">
    <path
       id="path1409"
       style="fill:#822aba;fill-opacity:1;stroke:none;stroke-width:1px;stroke-linecap:butt;stroke-linejoin:miter;stroke-opacity:1"
       d="m 1698.2494,-567.10489 h 453.548 l 166.6244,-251.56363 c 9.0223,-15.39263 12.1243,-37.10846 3.9931,-55.90303 -11.2557,-18.30258 -31.5706,-29.64464 -53.9065,-31.94458 h -692.7983 c -19.7287,0.002 -37.6029,13.51844 -49.9134,29.94804 -8.0004,20.67487 -7.126,42.46941 3.9931,59.89611 z m 5e-4,113.38471 c -711.54994,408.70711 -683.25,948.15201 -683.25,1015.76561 0,190.5911 177.3544,341.6465 392.4707,341.6465 l 1033.4121,2.8242 c 210.1469,0 384,-152.7327 384,-347.2949 0,-67.464 34.4429,-605.4188 -673.0859,-1012.94141 z m 258.3965,283.76562 c 17.1158,-0.0505 27.5293,14.06175 27.5293,30.35159 l -2.1172,60.3535 c 48.5931,2.2659 90.3553,18.7741 122.8242,44.1172 9.956,5.8275 11.5686,7.8914 12.7051,24.707 -1.15,10.4957 -1.5718,13.5043 -9.1758,24 l -43.7656,43.0586 c -10.1817,9.2172 -27.3511,10.9466 -39.5293,0 -15.0615,-8.1568 -31.9505,-14.5975 -48,-14.1172 h -110.8223 c -23.4126,-0.5611 -45.8828,22.0887 -45.8828,50.8223 0.6703,23.0544 15.7198,42.2927 34.5879,47.2949 l 173.6465,49.4121 c 71.5504,24.3218 121.2206,91.6958 122.8242,168.7051 -0.5961,92.2621 -75.0861,167.707 -168,170.4707 l 2.1172,61.0586 c -1.3186,17.3733 -13.9296,29.6484 -32.4707,29.6484 l -62.8223,1.4102 c -13.6346,0 -27.8142,-12.1472 -26.8242,-31.7637 v -60.3535 c -42.6734,-1.5166 -86.844,-16.5139 -120.707,-41.293 -9.2903,-6.0607 -13.5043,-14.6601 -14.8223,-24.707 3.1128,-14.0165 3.7726,-15.0387 12,-25.4121 l 45.8828,-43.0586 c 10.1246,-8.812 28.3719,-10.0142 36.7051,-1.4121 15.7076,11.44 32.4131,14.711 50.1172,15.5293 l 105.8828,-0.7051 c 27.9295,0.1579 48.5392,-21.979 49.4121,-45.8828 -2.029,-26.6601 -15.4481,-46.0224 -36,-51.5293 l -175.0586,-50.1172 c -68.7786,-22.9016 -120,-88.4736 -120,-166.5879 0,-92.3376 73.0552,-173.2949 164.4707,-173.2949 l -0.707,-62.4707 c 0,-14.12012 14.3321,-27.20999 31.7656,-26.82228 z"
       inkscape:connector-curvature="0" />
  </g>
</svg>
