<?xml version="1.0" encoding="UTF-8" standalone="no"?>
<!-- Created with Inkscape (http://www.inkscape.org/) -->

<svg
   xmlns:dc="http://purl.org/dc/elements/1.1/"
   xmlns:cc="http://creativecommons.org/ns#"
   xmlns:rdf="http://www.w3.org/1999/02/22-rdf-syntax-ns#"
   xmlns:svg="http://www.w3.org/2000/svg"
   xmlns="http://www.w3.org/2000/svg"
   xmlns:sodipodi="http://sodipodi.sourceforge.net/DTD/sodipodi-0.dtd"
   xmlns:inkscape="http://www.inkscape.org/namespaces/inkscape"
   width="1920px"
   height="1080px"
   viewBox="0 0 1920 1080"
   version="1.1"
   id="SVGRoot"
   inkscape:version="0.92.5 (2060ec1f9f, 2020-04-08)"
   sodipodi:docname="receipt.svg">
  <defs
     id="defs6191" />
  <sodipodi:namedview
     id="base"
     pagecolor="#ffffff"
     bordercolor="#666666"
     borderopacity="1.0"
     inkscape:pageopacity="0.0"
     inkscape:pageshadow="2"
     inkscape:zoom="0.49497475"
     inkscape:cx="1033.3316"
     inkscape:cy="532.46584"
     inkscape:document-units="px"
     inkscape:current-layer="layer1"
     showgrid="true"
     inkscape:window-width="1920"
     inkscape:window-height="975"
     inkscape:window-x="0"
     inkscape:window-y="40"
     inkscape:window-maximized="1">
    <inkscape:grid
       type="xygrid"
       id="grid6749"
       color="#3f3fff"
       opacity="0"
       spacingx="16"
       spacingy="12" />
  </sodipodi:namedview>
  <metadata
     id="metadata6194">
    <rdf:RDF>
      <cc:Work
         rdf:about="">
        <dc:format>image/svg+xml</dc:format>
        <dc:type
           rdf:resource="http://purl.org/dc/dcmitype/StillImage" />
        <dc:title></dc:title>
      </cc:Work>
    </rdf:RDF>
  </metadata>
  <g
     inkscape:label="Layer 1"
     inkscape:groupmode="layer"
     id="layer1">
    <path
       inkscape:connector-curvature="0"
       d="m 584.45563,4.6323434 c 17.97247,-8.26059 39.088,-5.31032002 54.10725,7.5560196 l 85.17935,73.01209 85.22155,-73.01209 c 18.98499,-16.2511496 46.82966,-16.2511496 65.81465,0 l 85.22155,73.01209 85.22162,-73.01209 c 18.985,-16.2511496 46.8297,-16.2511496 65.8147,0 l 85.2215,73.01209 85.2215,-73.01209 c 14.977,-12.86633962 36.0715,-15.8166096 54.0017,-7.5560196 17.9303,8.2626896 29.5323,26.2288196 29.5323,45.9943196 V 1029.4087 c 0,19.8288 -11.602,37.7591 -29.5323,45.9859 -17.9302,8.2269 -39.0247,5.2736 -54.0017,-7.594 l -85.2215,-72.98674 -85.2215,72.98674 c -18.985,16.2427 -46.8297,16.2427 -65.8147,0 l -85.22162,-72.98674 -85.22155,72.98674 c -18.98499,16.2427 -46.82966,16.2427 -65.81465,0 l -85.22155,-72.98674 -85.17935,72.98674 c -15.01925,12.8676 -36.13478,15.8209 -54.10725,7.594 -17.9598,-8.2268 -29.46893,-26.1571 -29.46893,-45.9859 V 50.626663 c 0,-19.7655 11.50913,-37.73374 29.46893,-45.9943196 z"
       id="path4104"
       sodipodi:nodetypes="cccccccccccsssccccccccccssc"
       style="stroke-width:5;fill:#fafafa;opacity:0.9;stroke-miterlimit:4;stroke-dasharray:none;stroke:none;stroke-opacity:1;fill-opacity:1"
       inkscape:export-xdpi="96"
       inkscape:export-ydpi="96" />
  </g>
</svg>
